<?xml version="1.0" standalone="no"?>
<!DOCTYPE svg PUBLIC "-//W3C//DTD SVG 20010904//EN"
 "http://www.w3.org/TR/2001/REC-SVG-20010904/DTD/svg10.dtd">
<svg version="1.0" xmlns="http://www.w3.org/2000/svg"
 width="672.000000pt" height="672.000000pt" viewBox="0 0 672.000000 672.000000"
 preserveAspectRatio="xMidYMid meet">
<metadata>
Created by potrace 1.14, written by Peter Selinger 2001-2017
</metadata>
<g transform="translate(0.000000,672.000000) scale(0.100000,-0.100000)"
fill="#000000" stroke="none">
<path d="M3130 6717 c-3 -3 -43 -7 -90 -11 -98 -8 -115 -10 -270 -37 -800
-139 -1534 -575 -2045 -1216 -83 -104 -255 -353 -255 -369 0 -4 -6 -15 -14
-23 -24 -27 -142 -259 -196 -386 -45 -106 -132 -352 -145 -409 -2 -12 -11 -47
-20 -80 -9 -32 -14 -65 -11 -73 3 -8 2 -12 -3 -9 -9 6 -25 -66 -25 -116 -1
-14 -4 -24 -8 -22 -5 3 -9 -11 -9 -30 -1 -20 -2 -39 -3 -43 -1 -5 -6 -33 -10
-63 -5 -30 -11 -64 -14 -75 -7 -30 -12 -716 -4 -711 4 2 5 -16 3 -41 -2 -31 0
-43 8 -39 7 5 9 1 5 -8 -5 -12 11 -153 22 -198 1 -5 2 -20 3 -34 1 -16 5 -23
13 -18 6 4 8 3 4 -4 -9 -15 4 -93 15 -86 5 3 6 -1 3 -9 -5 -14 16 -110 36
-167 4 -14 16 -53 26 -87 10 -34 22 -59 27 -56 6 3 7 1 3 -6 -19 -30 161 -436
284 -641 59 -98 186 -289 200 -300 3 -3 28 -33 54 -68 119 -156 326 -370 476
-492 30 -25 57 -47 60 -50 3 -3 32 -26 65 -51 458 -347 987 -571 1545 -653 58
-8 123 -18 145 -21 88 -14 570 -13 685 0 177 21 208 25 315 46 403 79 779 228
1135 449 103 64 341 235 360 259 3 3 34 31 70 61 129 108 313 302 442 465 53
67 228 320 228 329 0 2 19 37 43 78 138 235 268 559 337 841 43 173 68 322 90
527 8 76 6 589 -3 625 -2 11 -8 47 -11 80 -62 551 -293 1128 -636 1591 -454
611 -1110 1053 -1849 1245 -126 33 -341 74 -441 84 -36 4 -74 9 -85 12 -26 6
-549 16 -555 10z m720 -1917 l0 -960 960 0 960 0 0 -485 0 -485 -960 0 -960 0
0 -960 0 -960 -485 0 -485 0 0 960 0 960 -960 0 -960 0 0 485 0 485 960 0 960
0 0 960 0 960 485 0 485 0 0 -960z"/>
</g>
</svg>
