<!-- ./tga 3506000 603 7 oscillator.svg -->
<svg viewBox="-3.1 -0.1 24.2 8.2" xmlns="http://www.w3.org/2000/svg">
<path d="M8 0 l-1 1 M8 0 l0 1 M10 0 l0 1 M10 0 l1 1 M7 1 l0 1 M7 1 l1 1 M8 1 l-1 1 M8 1 l1 1 M10 1 l-1 1 M10 1 l1 1 M11 1 l-1 1 M11 1 l0 1 M8 2 l-1 1 M8 2 l0 1 M10 2 l0 1 M10 2 l1 1 M7 3 l0 1 M7 3 l1 1 M8 3 l-1 1 M8 3 l1 1 M10 3 l-1 1 M10 3 l1 1 M11 3 l-1 1 M11 3 l0 1 M8 4 l-1 1 M8 4 l0 1 M10 4 l0 1 M10 4 l1 1 M7 5 l0 1 M7 5 l1 1 M8 5 l-1 1 M8 5 l1 1 M10 5 l-1 1 M10 5 l1 1 M11 5 l-1 1 M11 5 l0 1 M8 6 l-1 1 M8 6 l0 1 M10 6 l0 1 M10 6 l1 1 M7 7 l0 1 M7 7 l1 1 M8 7 l-1 1 M8 7 l1 1 M10 7 l-1 1 M10 7 l1 1 M11 7 l-1 1 M11 7 l0 1" stroke="black" stroke-width="0.1" stroke-linecap="round" />
</svg>
