<!-- ./tga 3506000 2 100 pyramid.svg -->
<svg viewBox="50.9 -0.1 100.2 101.2" xmlns="http://www.w3.org/2000/svg">
<path d="M101 0 l0 1 M101 1 l-1 1 M101 1 l1 1 M100 2 l0 1 M100 2 l1 1 M102 2 l-1 1 M102 2 l0 1 M100 3 l-1 1 M100 3 l1 1 M102 3 l-1 1 M102 3 l1 1 M99 4 l0 1 M99 4 l1 1 M103 4 l-1 1 M103 4 l0 1 M99 5 l-1 1 M99 5 l1 1 M100 5 l-1 1 M100 5 l0 1 M102 5 l0 1 M102 5 l1 1 M103 5 l-1 1 M103 5 l1 1 M98 6 l0 1 M98 6 l1 1 M99 6 l0 1 M99 6 l1 1 M103 6 l-1 1 M103 6 l0 1 M104 6 l-1 1 M104 6 l0 1 M98 7 l-1 1 M98 7 l1 1 M100 7 l-1 1 M100 7 l0 1 M102 7 l0 1 M102 7 l1 1 M104 7 l-1 1 M104 7 l1 1 M97 8 l0 1 M97 8 l1 1 M100 8 l-1 1 M100 8 l1 1 M102 8 l-1 1 M102 8 l1 1 M105 8 l-1 1 M105 8 l0 1 M97 9 l-1 1 M97 9 l1 1 M98 9 l-1 1 M98 9 l0 1 M99 9 l0 1 M99 9 l1 1 M103 9 l-1 1 M103 9 l0 1 M104 9 l0 1 M104 9 l1 1 M105 9 l-1 1 M105 9 l1 1 M96 10 l0 1 M96 10 l1 1 M97 10 l0 1 M97 10 l1 1 M99 10 l-1 1 M99 10 l1 1 M100 10 l-1 1 M100 10 l0 1 M102 10 l0 1 M102 10 l1 1 M103 10 l-1 1 M103 10 l1 1 M105 10 l-1 1 M105 10 l0 1 M106 10 l-1 1 M106 10 l0 1 M96 11 l-1 1 M96 11 l1 1 M99 11 l0 1 M99 11 l1 1 M103 11 l-1 1 M103 11 l0 1 M106 11 l-1 1 M106 11 l1 1 M95 12 l0 1 M95 12 l1 1 M97 12 l-1 1 M97 12 l0 1 M99 12 l-1 1 M99 12 l1 1 M100 12 l-1 1 M100 12 l0 1 M102 12 l0 1 M102 12 l1 1 M103 12 l-1 1 M103 12 l1 1 M105 12 l0 1 M105 12 l1 1 M107 12 l-1 1 M107 12 l0 1 M95 13 l-1 1 M95 13 l1 1 M97 13 l-1 1 M97 13 l1 1 M98 13 l0 1 M98 13 l1 1 M99 13 l0 1 M99 13 l1 1 M103 13 l-1 1 M103 13 l0 1 M104 13 l-1 1 M104 13 l0 1 M105 13 l-1 1 M105 13 l1 1 M107 13 l-1 1 M107 13 l1 1 M94 14 l0 1 M94 14 l1 1 M100 14 l-1 1 M100 14 l0 1 M102 14 l0 1 M102 14 l1 1 M108 14 l-1 1 M108 14 l0 1 M94 15 l-1 1 M94 15 l1 1 M95 15 l-1 1 M95 15 l0 1 M99 15 l0 1 M99 15 l1 1 M100 15 l-1 1 M100 15 l1 1 M102 15 l-1 1 M102 15 l1 1 M103 15 l-1 1 M103 15 l0 1 M107 15 l0 1 M107 15 l1 1 M108 15 l-1 1 M108 15 l1 1 M93 16 l0 1 M93 16 l1 1 M94 16 l0 1 M94 16 l1 1 M100 16 l-1 1 M100 16 l0 1 M102 16 l0 1 M102 16 l1 1 M108 16 l-1 1 M108 16 l0 1 M109 16 l-1 1 M109 16 l0 1 M93 17 l-1 1 M93 17 l1 1 M95 17 l-1 1 M95 17 l0 1 M99 17 l0 1 M99 17 l1 1 M100 17 l-1 1 M100 17 l1 1 M102 17 l-1 1 M102 17 l1 1 M103 17 l-1 1 M103 17 l0 1 M107 17 l0 1 M107 17 l1 1 M109 17 l-1 1 M109 17 l1 1 M92 18 l0 1 M92 18 l1 1 M95 18 l-1 1 M95 18 l1 1 M100 18 l-1 1 M100 18 l0 1 M102 18 l0 1 M102 18 l1 1 M107 18 l-1 1 M107 18 l1 1 M110 18 l-1 1 M110 18 l0 1 M92 19 l-1 1 M92 19 l1 1 M93 19 l-1 1 M93 19 l0 1 M94 19 l0 1 M94 19 l1 1 M96 19 l-1 1 M96 19 l0 1 M99 19 l0 1 M99 19 l1 1 M100 19 l-1 1 M100 19 l1 1 M102 19 l-1 1 M102 19 l1 1 M103 19 l-1 1 M103 19 l0 1 M106 19 l0 1 M106 19 l1 1 M108 19 l-1 1 M108 19 l0 1 M109 19 l0 1 M109 19 l1 1 M110 19 l-1 1 M110 19 l1 1 M91 20 l0 1 M91 20 l1 1 M92 20 l0 1 M92 20 l1 1 M94 20 l-1 1 M94 20 l1 1 M96 20 l-1 1 M96 20 l1 1 M100 20 l-1 1 M100 20 l0 1 M102 20 l0 1 M102 20 l1 1 M106 20 l-1 1 M106 20 l1 1 M108 20 l-1 1 M108 20 l1 1 M110 20 l-1 1 M110 20 l0 1 M111 20 l-1 1 M111 20 l0 1 M91 21 l-1 1 M91 21 l1 1 M97 21 l-1 1 M97 21 l0 1 M99 21 l0 1 M99 21 l1 1 M100 21 l-1 1 M100 21 l1 1 M102 21 l-1 1 M102 21 l1 1 M103 21 l-1 1 M103 21 l0 1 M105 21 l0 1 M105 21 l1 1 M111 21 l-1 1 M111 21 l1 1 M90 22 l0 1 M90 22 l1 1 M92 22 l-1 1 M92 22 l0 1 M96 22 l0 1 M96 22 l1 1 M97 22 l-1 1 M97 22 l1 1 M100 22 l-1 1 M100 22 l0 1 M102 22 l0 1 M102 22 l1 1 M105 22 l-1 1 M105 22 l1 1 M106 22 l-1 1 M106 22 l0 1 M110 22 l0 1 M110 22 l1 1 M112 22 l-1 1 M112 22 l0 1 M90 23 l-1 1 M90 23 l1 1 M92 23 l-1 1 M92 23 l1 1 M97 23 l-1 1 M97 23 l0 1 M98 23 l-1 1 M98 23 l0 1 M99 23 l0 1 M99 23 l1 1 M100 23 l-1 1 M100 23 l1 1 M102 23 l-1 1 M102 23 l1 1 M103 23 l-1 1 M103 23 l0 1 M104 23 l0 1 M104 23 l1 1 M105 23 l0 1 M105 23 l1 1 M110 23 l-1 1 M110 23 l1 1 M112 23 l-1 1 M112 23 l1 1 M89 24 l0 1 M89 24 l1 1 M93 24 l-1 1 M93 24 l0 1 M96 24 l0 1 M96 24 l1 1 M98 24 l-1 1 M98 24 l1 1 M100 24 l-1 1 M100 24 l0 1 M102 24 l0 1 M102 24 l1 1 M104 24 l-1 1 M104 24 l1 1 M106 24 l-1 1 M106 24 l0 1 M109 24 l0 1 M109 24 l1 1 M113 24 l-1 1 M113 24 l0 1 M89 25 l-1 1 M89 25 l1 1 M90 25 l-1 1 M90 25 l0 1 M92 25 l0 1 M92 25 l1 1 M93 25 l-1 1 M93 25 l1 1 M96 25 l-1 1 M96 25 l1 1 M100 25 l-1 1 M100 25 l1 1 M102 25 l-1 1 M102 25 l1 1 M106 25 l-1 1 M106 25 l1 1 M109 25 l-1 1 M109 25 l1 1 M110 25 l-1 1 M110 25 l0 1 M112 25 l0 1 M112 25 l1 1 M113 25 l-1 1 M113 25 l1 1 M88 26 l0 1 M88 26 l1 1 M89 26 l0 1 M89 26 l1 1 M93 26 l-1 1 M93 26 l0 1 M94 26 l-1 1 M94 26 l0 1 M95 26 l0 1 M95 26 l1 1 M97 26 l-1 1 M97 26 l0 1 M99 26 l0 1 M99 26 l1 1 M103 26 l-1 1 M103 26 l0 1 M105 26 l0 1 M105 26 l1 1 M107 26 l-1 1 M107 26 l0 1 M108 26 l0 1 M108 26 l1 1 M109 26 l0 1 M109 26 l1 1 M113 26 l-1 1 M113 26 l0 1 M114 26 l-1 1 M114 26 l0 1 M88 27 l-1 1 M88 27 l1 1 M90 27 l-1 1 M90 27 l0 1 M92 27 l0 1 M92 27 l1 1 M94 27 l-1 1 M94 27 l1 1 M95 27 l-1 1 M95 27 l1 1 M97 27 l-1 1 M97 27 l1 1 M99 27 l-1 1 M99 27 l1 1 M100 27 l-1 1 M100 27 l0 1 M102 27 l0 1 M102 27 l1 1 M103 27 l-1 1 M103 27 l1 1 M105 27 l-1 1 M105 27 l1 1 M107 27 l-1 1 M107 27 l1 1 M108 27 l-1 1 M108 27 l1 1 M110 27 l-1 1 M110 27 l0 1 M112 27 l0 1 M112 27 l1 1 M114 27 l-1 1 M114 27 l1 1 M87 28 l0 1 M87 28 l1 1 M90 28 l-1 1 M90 28 l1 1 M92 28 l-1 1 M92 28 l1 1 M94 28 l0 1 M94 28 l1 1 M95 28 l-1 1 M95 28 l0 1 M99 28 l0 1 M99 28 l1 1 M103 28 l-1 1 M103 28 l0 1 M107 28 l0 1 M107 28 l1 1 M108 28 l-1 1 M108 28 l0 1 M110 28 l-1 1 M110 28 l1 1 M112 28 l-1 1 M112 28 l1 1 M115 28 l-1 1 M115 28 l0 1 M87 29 l-1 1 M87 29 l1 1 M88 29 l-1 1 M88 29 l0 1 M89 29 l0 1 M89 29 l1 1 M93 29 l-1 1 M93 29 l0 1 M99 29 l-1 1 M99 29 l1 1 M100 29 l-1 1 M100 29 l0 1 M102 29 l0 1 M102 29 l1 1 M103 29 l-1 1 M103 29 l1 1 M109 29 l0 1 M109 29 l1 1 M113 29 l-1 1 M113 29 l0 1 M114 29 l0 1 M114 29 l1 1 M115 29 l-1 1 M115 29 l1 1 M86 30 l0 1 M86 30 l1 1 M87 30 l0 1 M87 30 l1 1 M89 30 l-1 1 M89 30 l1 1 M90 30 l-1 1 M90 30 l0 1 M92 30 l0 1 M92 30 l1 1 M93 30 l-1 1 M93 30 l1 1 M98 30 l0 1 M98 30 l1 1 M99 30 l0 1 M99 30 l1 1 M103 30 l-1 1 M103 30 l0 1 M104 30 l-1 1 M104 30 l0 1 M109 30 l-1 1 M109 30 l1 1 M110 30 l-1 1 M110 30 l0 1 M112 30 l0 1 M112 30 l1 1 M113 30 l-1 1 M113 30 l1 1 M115 30 l-1 1 M115 30 l0 1 M116 30 l-1 1 M116 30 l0 1 M86 31 l-1 1 M86 31 l1 1 M89 31 l0 1 M89 31 l1 1 M93 31 l-1 1 M93 31 l0 1 M94 31 l-1 1 M94 31 l0 1 M98 31 l-1 1 M98 31 l1 1 M100 31 l-1 1 M100 31 l0 1 M102 31 l0 1 M102 31 l1 1 M104 31 l-1 1 M104 31 l1 1 M108 31 l0 1 M108 31 l1 1 M109 31 l0 1 M109 31 l1 1 M113 31 l-1 1 M113 31 l0 1 M116 31 l-1 1 M116 31 l1 1 M85 32 l0 1 M85 32 l1 1 M87 32 l-1 1 M87 32 l0 1 M89 32 l-1 1 M89 32 l1 1 M90 32 l-1 1 M90 32 l0 1 M92 32 l0 1 M92 32 l1 1 M94 32 l-1 1 M94 32 l1 1 M97 32 l0 1 M97 32 l1 1 M100 32 l-1 1 M100 32 l1 1 M102 32 l-1 1 M102 32 l1 1 M105 32 l-1 1 M105 32 l0 1 M108 32 l-1 1 M108 32 l1 1 M110 32 l-1 1 M110 32 l0 1 M112 32 l0 1 M112 32 l1 1 M113 32 l-1 1 M113 32 l1 1 M115 32 l0 1 M115 32 l1 1 M117 32 l-1 1 M117 32 l0 1 M85 33 l-1 1 M85 33 l1 1 M87 33 l-1 1 M87 33 l1 1 M88 33 l0 1 M88 33 l1 1 M89 33 l0 1 M89 33 l1 1 M92 33 l-1 1 M92 33 l1 1 M95 33 l-1 1 M95 33 l0 1 M97 33 l-1 1 M97 33 l1 1 M98 33 l-1 1 M98 33 l0 1 M99 33 l0 1 M99 33 l1 1 M103 33 l-1 1 M103 33 l0 1 M104 33 l0 1 M104 33 l1 1 M105 33 l-1 1 M105 33 l1 1 M107 33 l0 1 M107 33 l1 1 M110 33 l-1 1 M110 33 l1 1 M113 33 l-1 1 M113 33 l0 1 M114 33 l-1 1 M114 33 l0 1 M115 33 l-1 1 M115 33 l1 1 M117 33 l-1 1 M117 33 l1 1 M84 34 l0 1 M84 34 l1 1 M90 34 l-1 1 M90 34 l0 1 M91 34 l0 1 M91 34 l1 1 M93 34 l-1 1 M93 34 l0 1 M94 34 l0 1 M94 34 l1 1 M95 34 l-1 1 M95 34 l1 1 M96 34 l0 1 M96 34 l1 1 M97 34 l0 1 M97 34 l1 1 M99 34 l-1 1 M99 34 l1 1 M100 34 l-1 1 M100 34 l0 1 M102 34 l0 1 M102 34 l1 1 M103 34 l-1 1 M103 34 l1 1 M105 34 l-1 1 M105 34 l0 1 M106 34 l-1 1 M106 34 l0 1 M107 34 l-1 1 M107 34 l1 1 M108 34 l-1 1 M108 34 l0 1 M109 34 l0 1 M109 34 l1 1 M111 34 l-1 1 M111 34 l0 1 M112 34 l0 1 M112 34 l1 1 M118 34 l-1 1 M118 34 l0 1 M84 35 l-1 1 M84 35 l1 1 M85 35 l-1 1 M85 35 l0 1 M89 35 l0 1 M89 35 l1 1 M90 35 l-1 1 M90 35 l1 1 M91 35 l-1 1 M91 35 l1 1 M93 35 l-1 1 M93 35 l1 1 M95 35 l-1 1 M95 35 l0 1 M99 35 l0 1 M99 35 l1 1 M103 35 l-1 1 M103 35 l0 1 M107 35 l0 1 M107 35 l1 1 M109 35 l-1 1 M109 35 l1 1 M111 35 l-1 1 M111 35 l1 1 M112 35 l-1 1 M112 35 l1 1 M113 35 l-1 1 M113 35 l0 1 M117 35 l0 1 M117 35 l1 1 M118 35 l-1 1 M118 35 l1 1 M83 36 l0 1 M83 36 l1 1 M84 36 l0 1 M84 36 l1 1 M91 36 l-1 1 M91 36 l0 1 M95 36 l-1 1 M95 36 l1 1 M99 36 l-1 1 M99 36 l1 1 M100 36 l-1 1 M100 36 l0 1 M102 36 l0 1 M102 36 l1 1 M103 36 l-1 1 M103 36 l1 1 M107 36 l-1 1 M107 36 l1 1 M111 36 l0 1 M111 36 l1 1 M118 36 l-1 1 M118 36 l0 1 M119 36 l-1 1 M119 36 l0 1 M83 37 l-1 1 M83 37 l1 1 M85 37 l-1 1 M85 37 l0 1 M90 37 l0 1 M90 37 l1 1 M91 37 l-1 1 M91 37 l1 1 M94 37 l0 1 M94 37 l1 1 M96 37 l-1 1 M96 37 l0 1 M98 37 l0 1 M98 37 l1 1 M99 37 l0 1 M99 37 l1 1 M103 37 l-1 1 M103 37 l0 1 M104 37 l-1 1 M104 37 l0 1 M106 37 l0 1 M106 37 l1 1 M108 37 l-1 1 M108 37 l0 1 M111 37 l-1 1 M111 37 l1 1 M112 37 l-1 1 M112 37 l0 1 M117 37 l0 1 M117 37 l1 1 M119 37 l-1 1 M119 37 l1 1 M82 38 l0 1 M82 38 l1 1 M85 38 l-1 1 M85 38 l1 1 M91 38 l-1 1 M91 38 l0 1 M92 38 l-1 1 M92 38 l0 1 M94 38 l-1 1 M94 38 l1 1 M96 38 l-1 1 M96 38 l1 1 M98 38 l-1 1 M98 38 l1 1 M100 38 l-1 1 M100 38 l0 1 M102 38 l0 1 M102 38 l1 1 M104 38 l-1 1 M104 38 l1 1 M106 38 l-1 1 M106 38 l1 1 M108 38 l-1 1 M108 38 l1 1 M110 38 l0 1 M110 38 l1 1 M111 38 l0 1 M111 38 l1 1 M117 38 l-1 1 M117 38 l1 1 M120 38 l-1 1 M120 38 l0 1 M82 39 l-1 1 M82 39 l1 1 M83 39 l-1 1 M83 39 l0 1 M84 39 l0 1 M84 39 l1 1 M86 39 l-1 1 M86 39 l0 1 M90 39 l0 1 M90 39 l1 1 M92 39 l-1 1 M92 39 l1 1 M93 39 l0 1 M93 39 l1 1 M100 39 l-1 1 M100 39 l1 1 M102 39 l-1 1 M102 39 l1 1 M109 39 l-1 1 M109 39 l0 1 M110 39 l-1 1 M110 39 l1 1 M112 39 l-1 1 M112 39 l0 1 M116 39 l0 1 M116 39 l1 1 M118 39 l-1 1 M118 39 l0 1 M119 39 l0 1 M119 39 l1 1 M120 39 l-1 1 M120 39 l1 1 M81 40 l0 1 M81 40 l1 1 M82 40 l0 1 M82 40 l1 1 M84 40 l-1 1 M84 40 l1 1 M86 40 l-1 1 M86 40 l1 1 M90 40 l-1 1 M90 40 l1 1 M94 40 l-1 1 M94 40 l0 1 M99 40 l0 1 M99 40 l1 1 M103 40 l-1 1 M103 40 l0 1 M108 40 l0 1 M108 40 l1 1 M112 40 l-1 1 M112 40 l1 1 M116 40 l-1 1 M116 40 l1 1 M118 40 l-1 1 M118 40 l1 1 M120 40 l-1 1 M120 40 l0 1 M121 40 l-1 1 M121 40 l0 1 M81 41 l-1 1 M81 41 l1 1 M87 41 l-1 1 M87 41 l0 1 M89 41 l0 1 M89 41 l1 1 M91 41 l-1 1 M91 41 l0 1 M93 41 l0 1 M93 41 l1 1 M94 41 l-1 1 M94 41 l1 1 M99 41 l-1 1 M99 41 l1 1 M100 41 l-1 1 M100 41 l0 1 M102 41 l0 1 M102 41 l1 1 M103 41 l-1 1 M103 41 l1 1 M108 41 l-1 1 M108 41 l1 1 M109 41 l-1 1 M109 41 l0 1 M111 41 l0 1 M111 41 l1 1 M113 41 l-1 1 M113 41 l0 1 M115 41 l0 1 M115 41 l1 1 M121 41 l-1 1 M121 41 l1 1 M80 42 l0 1 M80 42 l1 1 M82 42 l-1 1 M82 42 l0 1 M86 42 l0 1 M86 42 l1 1 M87 42 l-1 1 M87 42 l1 1 M89 42 l-1 1 M89 42 l1 1 M91 42 l-1 1 M91 42 l1 1 M94 42 l-1 1 M94 42 l0 1 M95 42 l-1 1 M95 42 l0 1 M98 42 l0 1 M98 42 l1 1 M99 42 l0 1 M99 42 l1 1 M103 42 l-1 1 M103 42 l0 1 M104 42 l-1 1 M104 42 l0 1 M107 42 l0 1 M107 42 l1 1 M108 42 l0 1 M108 42 l1 1 M111 42 l-1 1 M111 42 l1 1 M113 42 l-1 1 M113 42 l1 1 M115 42 l-1 1 M115 42 l1 1 M116 42 l-1 1 M116 42 l0 1 M120 42 l0 1 M120 42 l1 1 M122 42 l-1 1 M122 42 l0 1 M80 43 l-1 1 M80 43 l1 1 M82 43 l-1 1 M82 43 l1 1 M87 43 l-1 1 M87 43 l0 1 M92 43 l-1 1 M92 43 l0 1 M93 43 l0 1 M93 43 l1 1 M95 43 l-1 1 M95 43 l1 1 M98 43 l-1 1 M98 43 l1 1 M100 43 l-1 1 M100 43 l0 1 M102 43 l0 1 M102 43 l1 1 M104 43 l-1 1 M104 43 l1 1 M107 43 l-1 1 M107 43 l1 1 M109 43 l-1 1 M109 43 l0 1 M110 43 l0 1 M110 43 l1 1 M115 43 l0 1 M115 43 l1 1 M120 43 l-1 1 M120 43 l1 1 M122 43 l-1 1 M122 43 l1 1 M79 44 l0 1 M79 44 l1 1 M83 44 l-1 1 M83 44 l0 1 M86 44 l0 1 M86 44 l1 1 M87 44 l-1 1 M87 44 l1 1 M91 44 l0 1 M91 44 l1 1 M92 44 l-1 1 M92 44 l1 1 M93 44 l-1 1 M93 44 l1 1 M96 44 l-1 1 M96 44 l0 1 M97 44 l0 1 M97 44 l1 1 M100 44 l-1 1 M100 44 l1 1 M102 44 l-1 1 M102 44 l1 1 M105 44 l-1 1 M105 44 l0 1 M106 44 l0 1 M106 44 l1 1 M109 44 l-1 1 M109 44 l1 1 M110 44 l-1 1 M110 44 l1 1 M111 44 l-1 1 M111 44 l0 1 M115 44 l-1 1 M115 44 l1 1 M116 44 l-1 1 M116 44 l0 1 M119 44 l0 1 M119 44 l1 1 M123 44 l-1 1 M123 44 l0 1 M79 45 l-1 1 M79 45 l1 1 M80 45 l-1 1 M80 45 l0 1 M82 45 l0 1 M82 45 l1 1 M83 45 l-1 1 M83 45 l1 1 M87 45 l-1 1 M87 45 l0 1 M88 45 l-1 1 M88 45 l0 1 M93 45 l-1 1 M93 45 l0 1 M94 45 l-1 1 M94 45 l0 1 M95 45 l0 1 M95 45 l1 1 M96 45 l-1 1 M96 45 l1 1 M97 45 l-1 1 M97 45 l1 1 M98 45 l-1 1 M98 45 l0 1 M99 45 l0 1 M99 45 l1 1 M103 45 l-1 1 M103 45 l0 1 M104 45 l0 1 M104 45 l1 1 M105 45 l-1 1 M105 45 l1 1 M106 45 l-1 1 M106 45 l1 1 M107 45 l-1 1 M107 45 l0 1 M108 45 l0 1 M108 45 l1 1 M109 45 l0 1 M109 45 l1 1 M114 45 l0 1 M114 45 l1 1 M115 45 l0 1 M115 45 l1 1 M119 45 l-1 1 M119 45 l1 1 M120 45 l-1 1 M120 45 l0 1 M122 45 l0 1 M122 45 l1 1 M123 45 l-1 1 M123 45 l1 1 M78 46 l0 1 M78 46 l1 1 M79 46 l0 1 M79 46 l1 1 M83 46 l-1 1 M83 46 l0 1 M84 46 l-1 1 M84 46 l0 1 M86 46 l0 1 M86 46 l1 1 M88 46 l-1 1 M88 46 l1 1 M92 46 l0 1 M92 46 l1 1 M94 46 l-1 1 M94 46 l1 1 M99 46 l-1 1 M99 46 l1 1 M100 46 l-1 1 M100 46 l0 1 M102 46 l0 1 M102 46 l1 1 M103 46 l-1 1 M103 46 l1 1 M108 46 l-1 1 M108 46 l1 1 M110 46 l-1 1 M110 46 l0 1 M114 46 l-1 1 M114 46 l1 1 M116 46 l-1 1 M116 46 l0 1 M118 46 l0 1 M118 46 l1 1 M119 46 l0 1 M119 46 l1 1 M123 46 l-1 1 M123 46 l0 1 M124 46 l-1 1 M124 46 l0 1 M78 47 l-1 1 M78 47 l1 1 M80 47 l-1 1 M80 47 l0 1 M82 47 l0 1 M82 47 l1 1 M84 47 l-1 1 M84 47 l1 1 M86 47 l-1 1 M86 47 l1 1 M89 47 l-1 1 M89 47 l0 1 M92 47 l-1 1 M92 47 l1 1 M95 47 l-1 1 M95 47 l0 1 M98 47 l0 1 M98 47 l1 1 M99 47 l0 1 M99 47 l1 1 M103 47 l-1 1 M103 47 l0 1 M104 47 l-1 1 M104 47 l0 1 M107 47 l0 1 M107 47 l1 1 M110 47 l-1 1 M110 47 l1 1 M113 47 l0 1 M113 47 l1 1 M116 47 l-1 1 M116 47 l1 1 M118 47 l-1 1 M118 47 l1 1 M120 47 l-1 1 M120 47 l0 1 M122 47 l0 1 M122 47 l1 1 M124 47 l-1 1 M124 47 l1 1 M77 48 l0 1 M77 48 l1 1 M80 48 l-1 1 M80 48 l1 1 M82 48 l-1 1 M82 48 l1 1 M87 48 l-1 1 M87 48 l0 1 M88 48 l0 1 M88 48 l1 1 M89 48 l-1 1 M89 48 l1 1 M91 48 l0 1 M91 48 l1 1 M93 48 l-1 1 M93 48 l0 1 M94 48 l0 1 M94 48 l1 1 M95 48 l-1 1 M95 48 l1 1 M98 48 l-1 1 M98 48 l1 1 M100 48 l-1 1 M100 48 l0 1 M102 48 l0 1 M102 48 l1 1 M104 48 l-1 1 M104 48 l1 1 M107 48 l-1 1 M107 48 l1 1 M108 48 l-1 1 M108 48 l0 1 M109 48 l0 1 M109 48 l1 1 M111 48 l-1 1 M111 48 l0 1 M113 48 l-1 1 M113 48 l1 1 M114 48 l-1 1 M114 48 l0 1 M115 48 l0 1 M115 48 l1 1 M120 48 l-1 1 M120 48 l1 1 M122 48 l-1 1 M122 48 l1 1 M125 48 l-1 1 M125 48 l0 1 M77 49 l-1 1 M77 49 l1 1 M78 49 l-1 1 M78 49 l0 1 M79 49 l0 1 M79 49 l1 1 M83 49 l-1 1 M83 49 l0 1 M86 49 l0 1 M86 49 l1 1 M87 49 l-1 1 M87 49 l1 1 M89 49 l-1 1 M89 49 l0 1 M90 49 l-1 1 M90 49 l0 1 M91 49 l-1 1 M91 49 l1 1 M93 49 l-1 1 M93 49 l1 1 M95 49 l-1 1 M95 49 l0 1 M96 49 l-1 1 M96 49 l0 1 M97 49 l0 1 M97 49 l1 1 M100 49 l-1 1 M100 49 l1 1 M102 49 l-1 1 M102 49 l1 1 M105 49 l-1 1 M105 49 l0 1 M106 49 l0 1 M106 49 l1 1 M107 49 l0 1 M107 49 l1 1 M109 49 l-1 1 M109 49 l1 1 M111 49 l-1 1 M111 49 l1 1 M112 49 l0 1 M112 49 l1 1 M113 49 l0 1 M113 49 l1 1 M115 49 l-1 1 M115 49 l1 1 M116 49 l-1 1 M116 49 l0 1 M119 49 l0 1 M119 49 l1 1 M123 49 l-1 1 M123 49 l0 1 M124 49 l0 1 M124 49 l1 1 M125 49 l-1 1 M125 49 l1 1 M76 50 l0 1 M76 50 l1 1 M77 50 l0 1 M77 50 l1 1 M79 50 l-1 1 M79 50 l1 1 M80 50 l-1 1 M80 50 l0 1 M82 50 l0 1 M82 50 l1 1 M83 50 l-1 1 M83 50 l1 1 M87 50 l-1 1 M87 50 l0 1 M96 50 l-1 1 M96 50 l1 1 M97 50 l-1 1 M97 50 l1 1 M98 50 l-1 1 M98 50 l0 1 M99 50 l0 1 M99 50 l1 1 M103 50 l-1 1 M103 50 l0 1 M104 50 l0 1 M104 50 l1 1 M105 50 l-1 1 M105 50 l1 1 M106 50 l-1 1 M106 50 l1 1 M115 50 l0 1 M115 50 l1 1 M119 50 l-1 1 M119 50 l1 1 M120 50 l-1 1 M120 50 l0 1 M122 50 l0 1 M122 50 l1 1 M123 50 l-1 1 M123 50 l1 1 M125 50 l-1 1 M125 50 l0 1 M126 50 l-1 1 M126 50 l0 1 M76 51 l-1 1 M76 51 l1 1 M79 51 l0 1 M79 51 l1 1 M83 51 l-1 1 M83 51 l0 1 M84 51 l-1 1 M84 51 l0 1 M86 51 l0 1 M86 51 l1 1 M87 51 l-1 1 M87 51 l1 1 M95 51 l0 1 M95 51 l1 1 M96 51 l0 1 M96 51 l1 1 M99 51 l-1 1 M99 51 l1 1 M100 51 l-1 1 M100 51 l0 1 M102 51 l0 1 M102 51 l1 1 M103 51 l-1 1 M103 51 l1 1 M106 51 l-1 1 M106 51 l0 1 M107 51 l-1 1 M107 51 l0 1 M115 51 l-1 1 M115 51 l1 1 M116 51 l-1 1 M116 51 l0 1 M118 51 l0 1 M118 51 l1 1 M119 51 l0 1 M119 51 l1 1 M123 51 l-1 1 M123 51 l0 1 M126 51 l-1 1 M126 51 l1 1 M75 52 l0 1 M75 52 l1 1 M77 52 l-1 1 M77 52 l0 1 M79 52 l-1 1 M79 52 l1 1 M80 52 l-1 1 M80 52 l0 1 M82 52 l0 1 M82 52 l1 1 M84 52 l-1 1 M84 52 l1 1 M87 52 l-1 1 M87 52 l0 1 M88 52 l-1 1 M88 52 l0 1 M95 52 l-1 1 M95 52 l1 1 M97 52 l-1 1 M97 52 l0 1 M98 52 l0 1 M98 52 l1 1 M99 52 l0 1 M99 52 l1 1 M103 52 l-1 1 M103 52 l0 1 M104 52 l-1 1 M104 52 l0 1 M105 52 l0 1 M105 52 l1 1 M107 52 l-1 1 M107 52 l1 1 M114 52 l0 1 M114 52 l1 1 M115 52 l0 1 M115 52 l1 1 M118 52 l-1 1 M118 52 l1 1 M120 52 l-1 1 M120 52 l0 1 M122 52 l0 1 M122 52 l1 1 M123 52 l-1 1 M123 52 l1 1 M125 52 l0 1 M125 52 l1 1 M127 52 l-1 1 M127 52 l0 1 M75 53 l-1 1 M75 53 l1 1 M77 53 l-1 1 M77 53 l1 1 M78 53 l0 1 M78 53 l1 1 M79 53 l0 1 M79 53 l1 1 M82 53 l-1 1 M82 53 l1 1 M85 53 l-1 1 M85 53 l0 1 M86 53 l0 1 M86 53 l1 1 M88 53 l-1 1 M88 53 l1 1 M94 53 l0 1 M94 53 l1 1 M97 53 l-1 1 M97 53 l1 1 M98 53 l-1 1 M98 53 l1 1 M100 53 l-1 1 M100 53 l0 1 M102 53 l0 1 M102 53 l1 1 M104 53 l-1 1 M104 53 l1 1 M105 53 l-1 1 M105 53 l1 1 M108 53 l-1 1 M108 53 l0 1 M114 53 l-1 1 M114 53 l1 1 M116 53 l-1 1 M116 53 l0 1 M117 53 l0 1 M117 53 l1 1 M120 53 l-1 1 M120 53 l1 1 M123 53 l-1 1 M123 53 l0 1 M124 53 l-1 1 M124 53 l0 1 M125 53 l-1 1 M125 53 l1 1 M127 53 l-1 1 M127 53 l1 1 M74 54 l0 1 M74 54 l1 1 M80 54 l-1 1 M80 54 l0 1 M81 54 l0 1 M81 54 l1 1 M83 54 l-1 1 M83 54 l0 1 M84 54 l0 1 M84 54 l1 1 M85 54 l-1 1 M85 54 l1 1 M86 54 l-1 1 M86 54 l1 1 M89 54 l-1 1 M89 54 l0 1 M94 54 l-1 1 M94 54 l1 1 M95 54 l-1 1 M95 54 l0 1 M96 54 l0 1 M96 54 l1 1 M97 54 l0 1 M97 54 l1 1 M98 54 l-1 1 M98 54 l0 1 M100 54 l-1 1 M100 54 l1 1 M102 54 l-1 1 M102 54 l1 1 M104 54 l0 1 M104 54 l1 1 M105 54 l-1 1 M105 54 l0 1 M106 54 l-1 1 M106 54 l0 1 M107 54 l0 1 M107 54 l1 1 M108 54 l-1 1 M108 54 l1 1 M113 54 l0 1 M113 54 l1 1 M116 54 l-1 1 M116 54 l1 1 M117 54 l-1 1 M117 54 l1 1 M118 54 l-1 1 M118 54 l0 1 M119 54 l0 1 M119 54 l1 1 M121 54 l-1 1 M121 54 l0 1 M122 54 l0 1 M122 54 l1 1 M128 54 l-1 1 M128 54 l0 1 M74 55 l-1 1 M74 55 l1 1 M75 55 l-1 1 M75 55 l0 1 M79 55 l0 1 M79 55 l1 1 M80 55 l-1 1 M80 55 l1 1 M81 55 l-1 1 M81 55 l1 1 M83 55 l-1 1 M83 55 l1 1 M86 55 l-1 1 M86 55 l0 1 M87 55 l-1 1 M87 55 l0 1 M88 55 l0 1 M88 55 l1 1 M89 55 l-1 1 M89 55 l1 1 M93 55 l0 1 M93 55 l1 1 M94 55 l0 1 M94 55 l1 1 M96 55 l-1 1 M96 55 l1 1 M99 55 l0 1 M99 55 l1 1 M103 55 l-1 1 M103 55 l0 1 M106 55 l-1 1 M106 55 l1 1 M108 55 l-1 1 M108 55 l0 1 M109 55 l-1 1 M109 55 l0 1 M113 55 l-1 1 M113 55 l1 1 M114 55 l-1 1 M114 55 l0 1 M115 55 l0 1 M115 55 l1 1 M116 55 l0 1 M116 55 l1 1 M119 55 l-1 1 M119 55 l1 1 M121 55 l-1 1 M121 55 l1 1 M122 55 l-1 1 M122 55 l1 1 M123 55 l-1 1 M123 55 l0 1 M127 55 l0 1 M127 55 l1 1 M128 55 l-1 1 M128 55 l1 1 M73 56 l0 1 M73 56 l1 1 M74 56 l0 1 M74 56 l1 1 M81 56 l-1 1 M81 56 l0 1 M84 56 l-1 1 M84 56 l0 1 M85 56 l0 1 M85 56 l1 1 M87 56 l-1 1 M87 56 l1 1 M89 56 l-1 1 M89 56 l0 1 M90 56 l-1 1 M90 56 l0 1 M93 56 l-1 1 M93 56 l1 1 M97 56 l-1 1 M97 56 l0 1 M99 56 l-1 1 M99 56 l1 1 M100 56 l-1 1 M100 56 l0 1 M102 56 l0 1 M102 56 l1 1 M103 56 l-1 1 M103 56 l1 1 M105 56 l0 1 M105 56 l1 1 M109 56 l-1 1 M109 56 l1 1 M112 56 l0 1 M112 56 l1 1 M113 56 l0 1 M113 56 l1 1 M115 56 l-1 1 M115 56 l1 1 M117 56 l-1 1 M117 56 l0 1 M118 56 l0 1 M118 56 l1 1 M121 56 l0 1 M121 56 l1 1 M128 56 l-1 1 M128 56 l0 1 M129 56 l-1 1 M129 56 l0 1 M73 57 l-1 1 M73 57 l1 1 M75 57 l-1 1 M75 57 l0 1 M80 57 l0 1 M80 57 l1 1 M81 57 l-1 1 M81 57 l1 1 M83 57 l0 1 M83 57 l1 1 M84 57 l-1 1 M84 57 l1 1 M85 57 l-1 1 M85 57 l1 1 M90 57 l-1 1 M90 57 l1 1 M92 57 l0 1 M92 57 l1 1 M94 57 l-1 1 M94 57 l0 1 M96 57 l0 1 M96 57 l1 1 M97 57 l-1 1 M97 57 l1 1 M98 57 l0 1 M98 57 l1 1 M99 57 l0 1 M99 57 l1 1 M103 57 l-1 1 M103 57 l0 1 M104 57 l-1 1 M104 57 l0 1 M105 57 l-1 1 M105 57 l1 1 M106 57 l-1 1 M106 57 l0 1 M108 57 l0 1 M108 57 l1 1 M110 57 l-1 1 M110 57 l0 1 M112 57 l-1 1 M112 57 l1 1 M117 57 l-1 1 M117 57 l1 1 M118 57 l-1 1 M118 57 l1 1 M119 57 l-1 1 M119 57 l0 1 M121 57 l-1 1 M121 57 l1 1 M122 57 l-1 1 M122 57 l0 1 M127 57 l0 1 M127 57 l1 1 M129 57 l-1 1 M129 57 l1 1 M72 58 l0 1 M72 58 l1 1 M75 58 l-1 1 M75 58 l1 1 M81 58 l-1 1 M81 58 l0 1 M82 58 l-1 1 M82 58 l0 1 M85 58 l-1 1 M85 58 l0 1 M86 58 l-1 1 M86 58 l0 1 M89 58 l0 1 M89 58 l1 1 M91 58 l-1 1 M91 58 l0 1 M92 58 l-1 1 M92 58 l1 1 M94 58 l-1 1 M94 58 l1 1 M97 58 l-1 1 M97 58 l0 1 M100 58 l-1 1 M100 58 l0 1 M102 58 l0 1 M102 58 l1 1 M105 58 l0 1 M105 58 l1 1 M108 58 l-1 1 M108 58 l1 1 M110 58 l-1 1 M110 58 l1 1 M111 58 l0 1 M111 58 l1 1 M113 58 l-1 1 M113 58 l0 1 M116 58 l0 1 M116 58 l1 1 M117 58 l0 1 M117 58 l1 1 M120 58 l0 1 M120 58 l1 1 M121 58 l0 1 M121 58 l1 1 M127 58 l-1 1 M127 58 l1 1 M130 58 l-1 1 M130 58 l0 1 M72 59 l-1 1 M72 59 l1 1 M73 59 l-1 1 M73 59 l0 1 M74 59 l0 1 M74 59 l1 1 M76 59 l-1 1 M76 59 l0 1 M80 59 l0 1 M80 59 l1 1 M82 59 l-1 1 M82 59 l1 1 M84 59 l0 1 M84 59 l1 1 M86 59 l-1 1 M86 59 l1 1 M89 59 l-1 1 M89 59 l1 1 M95 59 l-1 1 M95 59 l0 1 M96 59 l0 1 M96 59 l1 1 M97 59 l-1 1 M97 59 l1 1 M99 59 l0 1 M99 59 l1 1 M100 59 l-1 1 M100 59 l1 1 M102 59 l-1 1 M102 59 l1 1 M103 59 l-1 1 M103 59 l0 1 M105 59 l-1 1 M105 59 l1 1 M106 59 l-1 1 M106 59 l0 1 M107 59 l0 1 M107 59 l1 1 M113 59 l-1 1 M113 59 l1 1 M116 59 l-1 1 M116 59 l1 1 M118 59 l-1 1 M118 59 l0 1 M120 59 l-1 1 M120 59 l1 1 M122 59 l-1 1 M122 59 l0 1 M126 59 l0 1 M126 59 l1 1 M128 59 l-1 1 M128 59 l0 1 M129 59 l0 1 M129 59 l1 1 M130 59 l-1 1 M130 59 l1 1 M71 60 l0 1 M71 60 l1 1 M72 60 l0 1 M72 60 l1 1 M74 60 l-1 1 M74 60 l1 1 M76 60 l-1 1 M76 60 l1 1 M80 60 l-1 1 M80 60 l1 1 M83 60 l-1 1 M83 60 l0 1 M84 60 l-1 1 M84 60 l1 1 M87 60 l-1 1 M87 60 l0 1 M88 60 l0 1 M88 60 l1 1 M90 60 l-1 1 M90 60 l0 1 M94 60 l0 1 M94 60 l1 1 M95 60 l-1 1 M95 60 l1 1 M97 60 l-1 1 M97 60 l0 1 M98 60 l-1 1 M98 60 l0 1 M100 60 l-1 1 M100 60 l0 1 M102 60 l0 1 M102 60 l1 1 M104 60 l0 1 M104 60 l1 1 M105 60 l0 1 M105 60 l1 1 M107 60 l-1 1 M107 60 l1 1 M108 60 l-1 1 M108 60 l0 1 M112 60 l0 1 M112 60 l1 1 M114 60 l-1 1 M114 60 l0 1 M115 60 l0 1 M115 60 l1 1 M118 60 l-1 1 M118 60 l1 1 M119 60 l0 1 M119 60 l1 1 M122 60 l-1 1 M122 60 l1 1 M126 60 l-1 1 M126 60 l1 1 M128 60 l-1 1 M128 60 l1 1 M130 60 l-1 1 M130 60 l0 1 M131 60 l-1 1 M131 60 l0 1 M71 61 l-1 1 M71 61 l1 1 M77 61 l-1 1 M77 61 l0 1 M79 61 l0 1 M79 61 l1 1 M81 61 l-1 1 M81 61 l0 1 M82 61 l0 1 M82 61 l1 1 M85 61 l-1 1 M85 61 l0 1 M86 61 l0 1 M86 61 l1 1 M87 61 l-1 1 M87 61 l1 1 M88 61 l-1 1 M88 61 l1 1 M90 61 l-1 1 M90 61 l1 1 M95 61 l-1 1 M95 61 l0 1 M98 61 l-1 1 M98 61 l1 1 M99 61 l0 1 M99 61 l1 1 M100 61 l-1 1 M100 61 l1 1 M102 61 l-1 1 M102 61 l1 1 M103 61 l-1 1 M103 61 l0 1 M104 61 l-1 1 M104 61 l1 1 M107 61 l0 1 M107 61 l1 1 M112 61 l-1 1 M112 61 l1 1 M114 61 l-1 1 M114 61 l1 1 M115 61 l-1 1 M115 61 l1 1 M116 61 l-1 1 M116 61 l0 1 M117 61 l0 1 M117 61 l1 1 M120 61 l-1 1 M120 61 l0 1 M121 61 l0 1 M121 61 l1 1 M123 61 l-1 1 M123 61 l0 1 M125 61 l0 1 M125 61 l1 1 M131 61 l-1 1 M131 61 l1 1 M70 62 l0 1 M70 62 l1 1 M72 62 l-1 1 M72 62 l0 1 M76 62 l0 1 M76 62 l1 1 M77 62 l-1 1 M77 62 l1 1 M79 62 l-1 1 M79 62 l1 1 M81 62 l-1 1 M81 62 l1 1 M82 62 l-1 1 M82 62 l1 1 M83 62 l-1 1 M83 62 l0 1 M84 62 l0 1 M84 62 l1 1 M85 62 l-1 1 M85 62 l1 1 M88 62 l-1 1 M88 62 l0 1 M91 62 l-1 1 M91 62 l0 1 M94 62 l0 1 M94 62 l1 1 M95 62 l-1 1 M95 62 l1 1 M97 62 l0 1 M97 62 l1 1 M100 62 l-1 1 M100 62 l0 1 M102 62 l0 1 M102 62 l1 1 M105 62 l-1 1 M105 62 l0 1 M107 62 l-1 1 M107 62 l1 1 M108 62 l-1 1 M108 62 l0 1 M111 62 l0 1 M111 62 l1 1 M114 62 l0 1 M114 62 l1 1 M117 62 l-1 1 M117 62 l1 1 M118 62 l-1 1 M118 62 l0 1 M119 62 l0 1 M119 62 l1 1 M120 62 l-1 1 M120 62 l1 1 M121 62 l-1 1 M121 62 l1 1 M123 62 l-1 1 M123 62 l1 1 M125 62 l-1 1 M125 62 l1 1 M126 62 l-1 1 M126 62 l0 1 M130 62 l0 1 M130 62 l1 1 M132 62 l-1 1 M132 62 l0 1 M70 63 l-1 1 M70 63 l1 1 M72 63 l-1 1 M72 63 l1 1 M77 63 l-1 1 M77 63 l0 1 M81 63 l0 1 M81 63 l1 1 M85 63 l-1 1 M85 63 l0 1 M86 63 l-1 1 M86 63 l0 1 M87 63 l0 1 M87 63 l1 1 M88 63 l-1 1 M88 63 l1 1 M90 63 l0 1 M90 63 l1 1 M91 63 l-1 1 M91 63 l1 1 M95 63 l-1 1 M95 63 l0 1 M96 63 l-1 1 M96 63 l0 1 M97 63 l-1 1 M97 63 l1 1 M98 63 l-1 1 M98 63 l0 1 M99 63 l0 1 M99 63 l1 1 M100 63 l-1 1 M100 63 l1 1 M102 63 l-1 1 M102 63 l1 1 M103 63 l-1 1 M103 63 l0 1 M104 63 l0 1 M104 63 l1 1 M105 63 l-1 1 M105 63 l1 1 M106 63 l0 1 M106 63 l1 1 M107 63 l0 1 M107 63 l1 1 M111 63 l-1 1 M111 63 l1 1 M112 63 l-1 1 M112 63 l0 1 M114 63 l-1 1 M114 63 l1 1 M115 63 l-1 1 M115 63 l0 1 M116 63 l0 1 M116 63 l1 1 M117 63 l0 1 M117 63 l1 1 M121 63 l-1 1 M121 63 l0 1 M125 63 l0 1 M125 63 l1 1 M130 63 l-1 1 M130 63 l1 1 M132 63 l-1 1 M132 63 l1 1 M69 64 l0 1 M69 64 l1 1 M73 64 l-1 1 M73 64 l0 1 M76 64 l0 1 M76 64 l1 1 M77 64 l-1 1 M77 64 l1 1 M81 64 l-1 1 M81 64 l1 1 M82 64 l-1 1 M82 64 l0 1 M84 64 l0 1 M84 64 l1 1 M86 64 l-1 1 M86 64 l1 1 M88 64 l-1 1 M88 64 l0 1 M89 64 l-1 1 M89 64 l0 1 M91 64 l-1 1 M91 64 l0 1 M92 64 l-1 1 M92 64 l0 1 M94 64 l0 1 M94 64 l1 1 M97 64 l0 1 M97 64 l1 1 M100 64 l-1 1 M100 64 l0 1 M102 64 l0 1 M102 64 l1 1 M105 64 l-1 1 M105 64 l0 1 M108 64 l-1 1 M108 64 l0 1 M110 64 l0 1 M110 64 l1 1 M111 64 l0 1 M111 64 l1 1 M113 64 l0 1 M113 64 l1 1 M114 64 l0 1 M114 64 l1 1 M116 64 l-1 1 M116 64 l1 1 M118 64 l-1 1 M118 64 l0 1 M120 64 l0 1 M120 64 l1 1 M121 64 l-1 1 M121 64 l1 1 M125 64 l-1 1 M125 64 l1 1 M126 64 l-1 1 M126 64 l0 1 M129 64 l0 1 M129 64 l1 1 M133 64 l-1 1 M133 64 l0 1 M69 65 l-1 1 M69 65 l1 1 M70 65 l-1 1 M70 65 l0 1 M72 65 l0 1 M72 65 l1 1 M73 65 l-1 1 M73 65 l1 1 M77 65 l-1 1 M77 65 l0 1 M78 65 l-1 1 M78 65 l0 1 M80 65 l0 1 M80 65 l1 1 M81 65 l0 1 M81 65 l1 1 M84 65 l-1 1 M84 65 l1 1 M89 65 l-1 1 M89 65 l1 1 M90 65 l0 1 M90 65 l1 1 M92 65 l-1 1 M92 65 l1 1 M94 65 l-1 1 M94 65 l1 1 M95 65 l-1 1 M95 65 l0 1 M97 65 l-1 1 M97 65 l1 1 M98 65 l-1 1 M98 65 l0 1 M99 65 l0 1 M99 65 l1 1 M100 65 l-1 1 M100 65 l1 1 M102 65 l-1 1 M102 65 l1 1 M103 65 l-1 1 M103 65 l0 1 M104 65 l0 1 M104 65 l1 1 M105 65 l-1 1 M105 65 l1 1 M107 65 l0 1 M107 65 l1 1 M108 65 l-1 1 M108 65 l1 1 M110 65 l-1 1 M110 65 l1 1 M112 65 l-1 1 M112 65 l0 1 M113 65 l-1 1 M113 65 l1 1 M118 65 l-1 1 M118 65 l1 1 M121 65 l-1 1 M121 65 l0 1 M122 65 l-1 1 M122 65 l0 1 M124 65 l0 1 M124 65 l1 1 M125 65 l0 1 M125 65 l1 1 M129 65 l-1 1 M129 65 l1 1 M130 65 l-1 1 M130 65 l0 1 M132 65 l0 1 M132 65 l1 1 M133 65 l-1 1 M133 65 l1 1 M68 66 l0 1 M68 66 l1 1 M69 66 l0 1 M69 66 l1 1 M73 66 l-1 1 M73 66 l0 1 M74 66 l-1 1 M74 66 l0 1 M76 66 l0 1 M76 66 l1 1 M78 66 l-1 1 M78 66 l1 1 M80 66 l-1 1 M80 66 l1 1 M82 66 l-1 1 M82 66 l0 1 M83 66 l0 1 M83 66 l1 1 M85 66 l-1 1 M85 66 l0 1 M88 66 l0 1 M88 66 l1 1 M94 66 l0 1 M94 66 l1 1 M96 66 l0 1 M96 66 l1 1 M97 66 l0 1 M97 66 l1 1 M100 66 l-1 1 M100 66 l0 1 M102 66 l0 1 M102 66 l1 1 M105 66 l-1 1 M105 66 l0 1 M106 66 l-1 1 M106 66 l0 1 M108 66 l-1 1 M108 66 l0 1 M114 66 l-1 1 M114 66 l0 1 M117 66 l0 1 M117 66 l1 1 M119 66 l-1 1 M119 66 l0 1 M120 66 l0 1 M120 66 l1 1 M122 66 l-1 1 M122 66 l1 1 M124 66 l-1 1 M124 66 l1 1 M126 66 l-1 1 M126 66 l0 1 M128 66 l0 1 M128 66 l1 1 M129 66 l0 1 M129 66 l1 1 M133 66 l-1 1 M133 66 l0 1 M134 66 l-1 1 M134 66 l0 1 M68 67 l-1 1 M68 67 l1 1 M70 67 l-1 1 M70 67 l0 1 M72 67 l0 1 M72 67 l1 1 M74 67 l-1 1 M74 67 l1 1 M76 67 l-1 1 M76 67 l1 1 M82 67 l-1 1 M82 67 l1 1 M83 67 l-1 1 M83 67 l1 1 M85 67 l-1 1 M85 67 l1 1 M88 67 l-1 1 M88 67 l1 1 M89 67 l-1 1 M89 67 l0 1 M94 67 l-1 1 M94 67 l1 1 M95 67 l-1 1 M95 67 l0 1 M96 67 l-1 1 M96 67 l1 1 M98 67 l-1 1 M98 67 l0 1 M99 67 l0 1 M99 67 l1 1 M100 67 l-1 1 M100 67 l1 1 M102 67 l-1 1 M102 67 l1 1 M103 67 l-1 1 M103 67 l0 1 M104 67 l0 1 M104 67 l1 1 M106 67 l-1 1 M106 67 l1 1 M107 67 l0 1 M107 67 l1 1 M108 67 l-1 1 M108 67 l1 1 M113 67 l0 1 M113 67 l1 1 M114 67 l-1 1 M114 67 l1 1 M117 67 l-1 1 M117 67 l1 1 M119 67 l-1 1 M119 67 l1 1 M120 67 l-1 1 M120 67 l1 1 M126 67 l-1 1 M126 67 l1 1 M128 67 l-1 1 M128 67 l1 1 M130 67 l-1 1 M130 67 l0 1 M132 67 l0 1 M132 67 l1 1 M134 67 l-1 1 M134 67 l1 1 M67 68 l0 1 M67 68 l1 1 M70 68 l-1 1 M70 68 l1 1 M72 68 l-1 1 M72 68 l1 1 M77 68 l-1 1 M77 68 l0 1 M81 68 l0 1 M81 68 l1 1 M82 68 l0 1 M82 68 l1 1 M83 68 l-1 1 M83 68 l0 1 M86 68 l-1 1 M86 68 l0 1 M87 68 l0 1 M87 68 l1 1 M88 68 l0 1 M88 68 l1 1 M93 68 l0 1 M93 68 l1 1 M94 68 l0 1 M94 68 l1 1 M98 68 l-1 1 M98 68 l1 1 M100 68 l-1 1 M100 68 l0 1 M102 68 l0 1 M102 68 l1 1 M104 68 l-1 1 M104 68 l1 1 M108 68 l-1 1 M108 68 l0 1 M109 68 l-1 1 M109 68 l0 1 M114 68 l-1 1 M114 68 l0 1 M115 68 l-1 1 M115 68 l0 1 M116 68 l0 1 M116 68 l1 1 M119 68 l0 1 M119 68 l1 1 M120 68 l-1 1 M120 68 l0 1 M121 68 l-1 1 M121 68 l0 1 M125 68 l0 1 M125 68 l1 1 M130 68 l-1 1 M130 68 l1 1 M132 68 l-1 1 M132 68 l1 1 M135 68 l-1 1 M135 68 l0 1 M67 69 l-1 1 M67 69 l1 1 M68 69 l-1 1 M68 69 l0 1 M69 69 l0 1 M69 69 l1 1 M73 69 l-1 1 M73 69 l0 1 M76 69 l0 1 M76 69 l1 1 M77 69 l-1 1 M77 69 l1 1 M81 69 l-1 1 M81 69 l1 1 M85 69 l0 1 M85 69 l1 1 M86 69 l-1 1 M86 69 l1 1 M87 69 l-1 1 M87 69 l1 1 M89 69 l-1 1 M89 69 l0 1 M93 69 l-1 1 M93 69 l1 1 M95 69 l-1 1 M95 69 l0 1 M97 69 l0 1 M97 69 l1 1 M100 69 l-1 1 M100 69 l1 1 M102 69 l-1 1 M102 69 l1 1 M105 69 l-1 1 M105 69 l0 1 M107 69 l0 1 M107 69 l1 1 M109 69 l-1 1 M109 69 l1 1 M113 69 l0 1 M113 69 l1 1 M115 69 l-1 1 M115 69 l1 1 M116 69 l-1 1 M116 69 l1 1 M117 69 l-1 1 M117 69 l0 1 M121 69 l-1 1 M121 69 l1 1 M125 69 l-1 1 M125 69 l1 1 M126 69 l-1 1 M126 69 l0 1 M129 69 l0 1 M129 69 l1 1 M133 69 l-1 1 M133 69 l0 1 M134 69 l0 1 M134 69 l1 1 M135 69 l-1 1 M135 69 l1 1 M66 70 l0 1 M66 70 l1 1 M67 70 l0 1 M67 70 l1 1 M69 70 l-1 1 M69 70 l1 1 M70 70 l-1 1 M70 70 l0 1 M72 70 l0 1 M72 70 l1 1 M73 70 l-1 1 M73 70 l1 1 M77 70 l-1 1 M77 70 l0 1 M78 70 l-1 1 M78 70 l0 1 M80 70 l0 1 M80 70 l1 1 M82 70 l-1 1 M82 70 l0 1 M87 70 l-1 1 M87 70 l0 1 M89 70 l-1 1 M89 70 l1 1 M92 70 l0 1 M92 70 l1 1 M95 70 l-1 1 M95 70 l1 1 M97 70 l-1 1 M97 70 l1 1 M98 70 l-1 1 M98 70 l0 1 M99 70 l0 1 M99 70 l1 1 M103 70 l-1 1 M103 70 l0 1 M104 70 l0 1 M104 70 l1 1 M105 70 l-1 1 M105 70 l1 1 M107 70 l-1 1 M107 70 l1 1 M110 70 l-1 1 M110 70 l0 1 M113 70 l-1 1 M113 70 l1 1 M115 70 l0 1 M115 70 l1 1 M120 70 l0 1 M120 70 l1 1 M122 70 l-1 1 M122 70 l0 1 M124 70 l0 1 M124 70 l1 1 M125 70 l0 1 M125 70 l1 1 M129 70 l-1 1 M129 70 l1 1 M130 70 l-1 1 M130 70 l0 1 M132 70 l0 1 M132 70 l1 1 M133 70 l-1 1 M133 70 l1 1 M135 70 l-1 1 M135 70 l0 1 M136 70 l-1 1 M136 70 l0 1 M66 71 l-1 1 M66 71 l1 1 M69 71 l0 1 M69 71 l1 1 M73 71 l-1 1 M73 71 l0 1 M74 71 l-1 1 M74 71 l0 1 M76 71 l0 1 M76 71 l1 1 M78 71 l-1 1 M78 71 l1 1 M80 71 l-1 1 M80 71 l1 1 M82 71 l-1 1 M82 71 l1 1 M86 71 l0 1 M86 71 l1 1 M87 71 l-1 1 M87 71 l1 1 M88 71 l0 1 M88 71 l1 1 M90 71 l-1 1 M90 71 l0 1 M92 71 l-1 1 M92 71 l1 1 M93 71 l-1 1 M93 71 l0 1 M94 71 l0 1 M94 71 l1 1 M97 71 l0 1 M97 71 l1 1 M99 71 l-1 1 M99 71 l1 1 M100 71 l-1 1 M100 71 l0 1 M102 71 l0 1 M102 71 l1 1 M103 71 l-1 1 M103 71 l1 1 M105 71 l-1 1 M105 71 l0 1 M108 71 l-1 1 M108 71 l0 1 M109 71 l0 1 M109 71 l1 1 M110 71 l-1 1 M110 71 l1 1 M112 71 l0 1 M112 71 l1 1 M114 71 l-1 1 M114 71 l0 1 M115 71 l-1 1 M115 71 l1 1 M116 71 l-1 1 M116 71 l0 1 M120 71 l-1 1 M120 71 l1 1 M122 71 l-1 1 M122 71 l1 1 M124 71 l-1 1 M124 71 l1 1 M126 71 l-1 1 M126 71 l0 1 M128 71 l0 1 M128 71 l1 1 M129 71 l0 1 M129 71 l1 1 M133 71 l-1 1 M133 71 l0 1 M136 71 l-1 1 M136 71 l1 1 M65 72 l0 1 M65 72 l1 1 M67 72 l-1 1 M67 72 l0 1 M69 72 l-1 1 M69 72 l1 1 M70 72 l-1 1 M70 72 l0 1 M72 72 l0 1 M72 72 l1 1 M74 72 l-1 1 M74 72 l1 1 M76 72 l-1 1 M76 72 l1 1 M83 72 l-1 1 M83 72 l0 1 M87 72 l-1 1 M87 72 l0 1 M90 72 l-1 1 M90 72 l1 1 M91 72 l0 1 M91 72 l1 1 M92 72 l0 1 M92 72 l1 1 M94 72 l-1 1 M94 72 l1 1 M95 72 l-1 1 M95 72 l0 1 M97 72 l-1 1 M97 72 l1 1 M99 72 l0 1 M99 72 l1 1 M103 72 l-1 1 M103 72 l0 1 M105 72 l-1 1 M105 72 l1 1 M107 72 l0 1 M107 72 l1 1 M108 72 l-1 1 M108 72 l1 1 M110 72 l-1 1 M110 72 l0 1 M111 72 l-1 1 M111 72 l0 1 M112 72 l-1 1 M112 72 l1 1 M115 72 l0 1 M115 72 l1 1 M119 72 l0 1 M119 72 l1 1 M126 72 l-1 1 M126 72 l1 1 M128 72 l-1 1 M128 72 l1 1 M130 72 l-1 1 M130 72 l0 1 M132 72 l0 1 M132 72 l1 1 M133 72 l-1 1 M133 72 l1 1 M135 72 l0 1 M135 72 l1 1 M137 72 l-1 1 M137 72 l0 1 M65 73 l-1 1 M65 73 l1 1 M67 73 l-1 1 M67 73 l1 1 M68 73 l0 1 M68 73 l1 1 M69 73 l0 1 M69 73 l1 1 M72 73 l-1 1 M72 73 l1 1 M77 73 l-1 1 M77 73 l0 1 M82 73 l0 1 M82 73 l1 1 M83 73 l-1 1 M83 73 l1 1 M86 73 l0 1 M86 73 l1 1 M87 73 l-1 1 M87 73 l1 1 M89 73 l0 1 M89 73 l1 1 M94 73 l0 1 M94 73 l1 1 M96 73 l0 1 M96 73 l1 1 M98 73 l-1 1 M98 73 l0 1 M99 73 l-1 1 M99 73 l1 1 M100 73 l-1 1 M100 73 l0 1 M102 73 l0 1 M102 73 l1 1 M103 73 l-1 1 M103 73 l1 1 M104 73 l0 1 M104 73 l1 1 M106 73 l-1 1 M106 73 l0 1 M108 73 l-1 1 M108 73 l0 1 M113 73 l-1 1 M113 73 l0 1 M115 73 l-1 1 M115 73 l1 1 M116 73 l-1 1 M116 73 l0 1 M119 73 l-1 1 M119 73 l1 1 M120 73 l-1 1 M120 73 l0 1 M125 73 l0 1 M125 73 l1 1 M130 73 l-1 1 M130 73 l1 1 M133 73 l-1 1 M133 73 l0 1 M134 73 l-1 1 M134 73 l0 1 M135 73 l-1 1 M135 73 l1 1 M137 73 l-1 1 M137 73 l1 1 M64 74 l0 1 M64 74 l1 1 M70 74 l-1 1 M70 74 l0 1 M71 74 l0 1 M71 74 l1 1 M73 74 l-1 1 M73 74 l0 1 M76 74 l0 1 M76 74 l1 1 M77 74 l-1 1 M77 74 l1 1 M83 74 l-1 1 M83 74 l0 1 M84 74 l-1 1 M84 74 l0 1 M87 74 l-1 1 M87 74 l0 1 M88 74 l-1 1 M88 74 l0 1 M89 74 l-1 1 M89 74 l1 1 M90 74 l-1 1 M90 74 l0 1 M94 74 l-1 1 M94 74 l1 1 M95 74 l-1 1 M95 74 l0 1 M96 74 l-1 1 M96 74 l1 1 M99 74 l0 1 M99 74 l1 1 M103 74 l-1 1 M103 74 l0 1 M106 74 l-1 1 M106 74 l1 1 M107 74 l0 1 M107 74 l1 1 M108 74 l-1 1 M108 74 l1 1 M112 74 l0 1 M112 74 l1 1 M113 74 l-1 1 M113 74 l1 1 M114 74 l0 1 M114 74 l1 1 M115 74 l0 1 M115 74 l1 1 M118 74 l0 1 M118 74 l1 1 M119 74 l0 1 M119 74 l1 1 M125 74 l-1 1 M125 74 l1 1 M126 74 l-1 1 M126 74 l0 1 M129 74 l0 1 M129 74 l1 1 M131 74 l-1 1 M131 74 l0 1 M132 74 l0 1 M132 74 l1 1 M138 74 l-1 1 M138 74 l0 1 M64 75 l-1 1 M64 75 l1 1 M65 75 l-1 1 M65 75 l0 1 M69 75 l0 1 M69 75 l1 1 M70 75 l-1 1 M70 75 l1 1 M71 75 l-1 1 M71 75 l1 1 M73 75 l-1 1 M73 75 l1 1 M77 75 l-1 1 M77 75 l0 1 M78 75 l-1 1 M78 75 l0 1 M82 75 l0 1 M82 75 l1 1 M84 75 l-1 1 M84 75 l1 1 M86 75 l0 1 M86 75 l1 1 M89 75 l0 1 M89 75 l1 1 M93 75 l0 1 M93 75 l1 1 M94 75 l0 1 M94 75 l1 1 M97 75 l-1 1 M97 75 l0 1 M99 75 l-1 1 M99 75 l1 1 M100 75 l-1 1 M100 75 l0 1 M102 75 l0 1 M102 75 l1 1 M103 75 l-1 1 M103 75 l1 1 M105 75 l0 1 M105 75 l1 1 M108 75 l-1 1 M108 75 l0 1 M109 75 l-1 1 M109 75 l0 1 M113 75 l-1 1 M113 75 l0 1 M116 75 l-1 1 M116 75 l0 1 M118 75 l-1 1 M118 75 l1 1 M120 75 l-1 1 M120 75 l0 1 M124 75 l0 1 M124 75 l1 1 M125 75 l0 1 M125 75 l1 1 M129 75 l-1 1 M129 75 l1 1 M131 75 l-1 1 M131 75 l1 1 M132 75 l-1 1 M132 75 l1 1 M133 75 l-1 1 M133 75 l0 1 M137 75 l0 1 M137 75 l1 1 M138 75 l-1 1 M138 75 l1 1 M63 76 l0 1 M63 76 l1 1 M64 76 l0 1 M64 76 l1 1 M71 76 l-1 1 M71 76 l0 1 M74 76 l-1 1 M74 76 l0 1 M76 76 l0 1 M76 76 l1 1 M78 76 l-1 1 M78 76 l1 1 M82 76 l-1 1 M82 76 l1 1 M85 76 l-1 1 M85 76 l0 1 M86 76 l-1 1 M86 76 l1 1 M87 76 l-1 1 M87 76 l0 1 M89 76 l-1 1 M89 76 l1 1 M90 76 l-1 1 M90 76 l0 1 M93 76 l-1 1 M93 76 l1 1 M95 76 l-1 1 M95 76 l0 1 M96 76 l0 1 M96 76 l1 1 M97 76 l-1 1 M97 76 l1 1 M98 76 l0 1 M98 76 l1 1 M99 76 l0 1 M99 76 l1 1 M103 76 l-1 1 M103 76 l0 1 M104 76 l-1 1 M104 76 l0 1 M105 76 l-1 1 M105 76 l1 1 M106 76 l-1 1 M106 76 l0 1 M107 76 l0 1 M107 76 l1 1 M109 76 l-1 1 M109 76 l1 1 M112 76 l0 1 M112 76 l1 1 M113 76 l-1 1 M113 76 l1 1 M115 76 l0 1 M115 76 l1 1 M116 76 l-1 1 M116 76 l1 1 M117 76 l0 1 M117 76 l1 1 M120 76 l-1 1 M120 76 l1 1 M124 76 l-1 1 M124 76 l1 1 M126 76 l-1 1 M126 76 l0 1 M128 76 l0 1 M128 76 l1 1 M131 76 l0 1 M131 76 l1 1 M138 76 l-1 1 M138 76 l0 1 M139 76 l-1 1 M139 76 l0 1 M63 77 l-1 1 M63 77 l1 1 M65 77 l-1 1 M65 77 l0 1 M70 77 l0 1 M70 77 l1 1 M71 77 l-1 1 M71 77 l1 1 M73 77 l0 1 M73 77 l1 1 M74 77 l-1 1 M74 77 l1 1 M76 77 l-1 1 M76 77 l1 1 M79 77 l-1 1 M79 77 l0 1 M81 77 l0 1 M81 77 l1 1 M83 77 l-1 1 M83 77 l0 1 M84 77 l0 1 M84 77 l1 1 M86 77 l0 1 M86 77 l1 1 M88 77 l0 1 M88 77 l1 1 M89 77 l0 1 M89 77 l1 1 M92 77 l0 1 M92 77 l1 1 M95 77 l-1 1 M95 77 l1 1 M97 77 l-1 1 M97 77 l0 1 M100 77 l-1 1 M100 77 l0 1 M102 77 l0 1 M102 77 l1 1 M105 77 l0 1 M105 77 l1 1 M107 77 l-1 1 M107 77 l1 1 M110 77 l-1 1 M110 77 l0 1 M113 77 l-1 1 M113 77 l0 1 M114 77 l-1 1 M114 77 l0 1 M116 77 l-1 1 M116 77 l0 1 M118 77 l-1 1 M118 77 l0 1 M119 77 l0 1 M119 77 l1 1 M121 77 l-1 1 M121 77 l0 1 M123 77 l0 1 M123 77 l1 1 M126 77 l-1 1 M126 77 l1 1 M128 77 l-1 1 M128 77 l1 1 M129 77 l-1 1 M129 77 l0 1 M131 77 l-1 1 M131 77 l1 1 M132 77 l-1 1 M132 77 l0 1 M137 77 l0 1 M137 77 l1 1 M139 77 l-1 1 M139 77 l1 1 M62 78 l0 1 M62 78 l1 1 M65 78 l-1 1 M65 78 l1 1 M71 78 l-1 1 M71 78 l0 1 M72 78 l-1 1 M72 78 l0 1 M74 78 l-1 1 M74 78 l0 1 M77 78 l-1 1 M77 78 l0 1 M78 78 l0 1 M78 78 l1 1 M79 78 l-1 1 M79 78 l1 1 M81 78 l-1 1 M81 78 l1 1 M83 78 l-1 1 M83 78 l1 1 M84 78 l-1 1 M84 78 l1 1 M85 78 l-1 1 M85 78 l0 1 M86 78 l-1 1 M86 78 l1 1 M87 78 l-1 1 M87 78 l0 1 M88 78 l-1 1 M88 78 l1 1 M90 78 l-1 1 M90 78 l0 1 M92 78 l-1 1 M92 78 l1 1 M93 78 l-1 1 M93 78 l0 1 M94 78 l0 1 M94 78 l1 1 M97 78 l-1 1 M97 78 l1 1 M99 78 l0 1 M99 78 l1 1 M100 78 l-1 1 M100 78 l1 1 M102 78 l-1 1 M102 78 l1 1 M103 78 l-1 1 M103 78 l0 1 M105 78 l-1 1 M105 78 l1 1 M108 78 l-1 1 M108 78 l0 1 M109 78 l0 1 M109 78 l1 1 M110 78 l-1 1 M110 78 l1 1 M112 78 l0 1 M112 78 l1 1 M114 78 l-1 1 M114 78 l1 1 M115 78 l0 1 M115 78 l1 1 M116 78 l-1 1 M116 78 l1 1 M117 78 l0 1 M117 78 l1 1 M118 78 l-1 1 M118 78 l1 1 M119 78 l-1 1 M119 78 l1 1 M121 78 l-1 1 M121 78 l1 1 M123 78 l-1 1 M123 78 l1 1 M124 78 l-1 1 M124 78 l0 1 M125 78 l0 1 M125 78 l1 1 M128 78 l0 1 M128 78 l1 1 M130 78 l0 1 M130 78 l1 1 M131 78 l0 1 M131 78 l1 1 M137 78 l-1 1 M137 78 l1 1 M140 78 l-1 1 M140 78 l0 1 M62 79 l-1 1 M62 79 l1 1 M63 79 l-1 1 M63 79 l0 1 M64 79 l0 1 M64 79 l1 1 M66 79 l-1 1 M66 79 l0 1 M70 79 l0 1 M70 79 l1 1 M72 79 l-1 1 M72 79 l1 1 M73 79 l0 1 M73 79 l1 1 M74 79 l-1 1 M74 79 l1 1 M76 79 l0 1 M76 79 l1 1 M77 79 l-1 1 M77 79 l1 1 M79 79 l-1 1 M79 79 l0 1 M83 79 l0 1 M83 79 l1 1 M86 79 l0 1 M86 79 l1 1 M90 79 l-1 1 M90 79 l1 1 M91 79 l0 1 M91 79 l1 1 M92 79 l0 1 M92 79 l1 1 M94 79 l-1 1 M94 79 l1 1 M95 79 l-1 1 M95 79 l0 1 M96 79 l0 1 M96 79 l1 1 M98 79 l-1 1 M98 79 l0 1 M100 79 l-1 1 M100 79 l0 1 M102 79 l0 1 M102 79 l1 1 M104 79 l0 1 M104 79 l1 1 M106 79 l-1 1 M106 79 l0 1 M107 79 l0 1 M107 79 l1 1 M108 79 l-1 1 M108 79 l1 1 M110 79 l-1 1 M110 79 l0 1 M111 79 l-1 1 M111 79 l0 1 M112 79 l-1 1 M112 79 l1 1 M116 79 l-1 1 M116 79 l0 1 M119 79 l-1 1 M119 79 l0 1 M123 79 l0 1 M123 79 l1 1 M125 79 l-1 1 M125 79 l1 1 M126 79 l-1 1 M126 79 l0 1 M128 79 l-1 1 M128 79 l1 1 M129 79 l-1 1 M129 79 l0 1 M130 79 l-1 1 M130 79 l1 1 M132 79 l-1 1 M132 79 l0 1 M136 79 l0 1 M136 79 l1 1 M138 79 l-1 1 M138 79 l0 1 M139 79 l0 1 M139 79 l1 1 M140 79 l-1 1 M140 79 l1 1 M61 80 l0 1 M61 80 l1 1 M62 80 l0 1 M62 80 l1 1 M64 80 l-1 1 M64 80 l1 1 M66 80 l-1 1 M66 80 l1 1 M70 80 l-1 1 M70 80 l1 1 M74 80 l-1 1 M74 80 l0 1 M75 80 l-1 1 M75 80 l0 1 M77 80 l-1 1 M77 80 l0 1 M79 80 l-1 1 M79 80 l1 1 M83 80 l-1 1 M83 80 l1 1 M84 80 l-1 1 M84 80 l0 1 M86 80 l-1 1 M86 80 l1 1 M87 80 l-1 1 M87 80 l0 1 M89 80 l0 1 M89 80 l1 1 M94 80 l0 1 M94 80 l1 1 M96 80 l-1 1 M96 80 l1 1 M98 80 l-1 1 M98 80 l1 1 M99 80 l0 1 M99 80 l1 1 M100 80 l-1 1 M100 80 l1 1 M102 80 l-1 1 M102 80 l1 1 M103 80 l-1 1 M103 80 l0 1 M104 80 l-1 1 M104 80 l1 1 M106 80 l-1 1 M106 80 l1 1 M108 80 l-1 1 M108 80 l0 1 M113 80 l-1 1 M113 80 l0 1 M115 80 l0 1 M115 80 l1 1 M116 80 l-1 1 M116 80 l1 1 M118 80 l0 1 M118 80 l1 1 M119 80 l-1 1 M119 80 l1 1 M123 80 l-1 1 M123 80 l1 1 M125 80 l0 1 M125 80 l1 1 M127 80 l0 1 M127 80 l1 1 M128 80 l0 1 M128 80 l1 1 M132 80 l-1 1 M132 80 l1 1 M136 80 l-1 1 M136 80 l1 1 M138 80 l-1 1 M138 80 l1 1 M140 80 l-1 1 M140 80 l0 1 M141 80 l-1 1 M141 80 l0 1 M61 81 l-1 1 M61 81 l1 1 M67 81 l-1 1 M67 81 l0 1 M69 81 l0 1 M69 81 l1 1 M71 81 l-1 1 M71 81 l0 1 M73 81 l0 1 M73 81 l1 1 M75 81 l-1 1 M75 81 l1 1 M76 81 l0 1 M76 81 l1 1 M77 81 l-1 1 M77 81 l1 1 M78 81 l0 1 M78 81 l1 1 M80 81 l-1 1 M80 81 l0 1 M82 81 l0 1 M82 81 l1 1 M83 81 l0 1 M83 81 l1 1 M85 81 l0 1 M85 81 l1 1 M86 81 l0 1 M86 81 l1 1 M89 81 l-1 1 M89 81 l1 1 M90 81 l-1 1 M90 81 l0 1 M94 81 l-1 1 M94 81 l1 1 M100 81 l-1 1 M100 81 l0 1 M102 81 l0 1 M102 81 l1 1 M108 81 l-1 1 M108 81 l1 1 M112 81 l0 1 M112 81 l1 1 M113 81 l-1 1 M113 81 l1 1 M116 81 l-1 1 M116 81 l0 1 M117 81 l-1 1 M117 81 l0 1 M119 81 l-1 1 M119 81 l0 1 M120 81 l-1 1 M120 81 l0 1 M122 81 l0 1 M122 81 l1 1 M124 81 l-1 1 M124 81 l0 1 M125 81 l-1 1 M125 81 l1 1 M126 81 l-1 1 M126 81 l0 1 M127 81 l-1 1 M127 81 l1 1 M129 81 l-1 1 M129 81 l0 1 M131 81 l0 1 M131 81 l1 1 M133 81 l-1 1 M133 81 l0 1 M135 81 l0 1 M135 81 l1 1 M141 81 l-1 1 M141 81 l1 1 M60 82 l0 1 M60 82 l1 1 M62 82 l-1 1 M62 82 l0 1 M66 82 l0 1 M66 82 l1 1 M67 82 l-1 1 M67 82 l1 1 M69 82 l-1 1 M69 82 l1 1 M71 82 l-1 1 M71 82 l1 1 M73 82 l-1 1 M73 82 l1 1 M77 82 l-1 1 M77 82 l0 1 M80 82 l-1 1 M80 82 l1 1 M82 82 l-1 1 M82 82 l1 1 M84 82 l-1 1 M84 82 l0 1 M85 82 l-1 1 M85 82 l1 1 M87 82 l-1 1 M87 82 l0 1 M88 82 l0 1 M88 82 l1 1 M89 82 l0 1 M89 82 l1 1 M93 82 l0 1 M93 82 l1 1 M95 82 l-1 1 M95 82 l0 1 M99 82 l0 1 M99 82 l1 1 M100 82 l-1 1 M100 82 l1 1 M102 82 l-1 1 M102 82 l1 1 M103 82 l-1 1 M103 82 l0 1 M107 82 l0 1 M107 82 l1 1 M109 82 l-1 1 M109 82 l0 1 M113 82 l-1 1 M113 82 l0 1 M114 82 l-1 1 M114 82 l0 1 M115 82 l0 1 M115 82 l1 1 M117 82 l-1 1 M117 82 l1 1 M118 82 l0 1 M118 82 l1 1 M120 82 l-1 1 M120 82 l1 1 M122 82 l-1 1 M122 82 l1 1 M125 82 l0 1 M125 82 l1 1 M129 82 l-1 1 M129 82 l1 1 M131 82 l-1 1 M131 82 l1 1 M133 82 l-1 1 M133 82 l1 1 M135 82 l-1 1 M135 82 l1 1 M136 82 l-1 1 M136 82 l0 1 M140 82 l0 1 M140 82 l1 1 M142 82 l-1 1 M142 82 l0 1 M60 83 l-1 1 M60 83 l1 1 M62 83 l-1 1 M62 83 l1 1 M67 83 l-1 1 M67 83 l0 1 M74 83 l-1 1 M74 83 l0 1 M76 83 l0 1 M76 83 l1 1 M77 83 l-1 1 M77 83 l1 1 M79 83 l0 1 M79 83 l1 1 M87 83 l-1 1 M87 83 l1 1 M88 83 l-1 1 M88 83 l1 1 M90 83 l-1 1 M90 83 l0 1 M93 83 l-1 1 M93 83 l1 1 M95 83 l-1 1 M95 83 l1 1 M100 83 l-1 1 M100 83 l0 1 M102 83 l0 1 M102 83 l1 1 M107 83 l-1 1 M107 83 l1 1 M109 83 l-1 1 M109 83 l1 1 M112 83 l0 1 M112 83 l1 1 M114 83 l-1 1 M114 83 l1 1 M115 83 l-1 1 M115 83 l1 1 M123 83 l-1 1 M123 83 l0 1 M125 83 l-1 1 M125 83 l1 1 M126 83 l-1 1 M126 83 l0 1 M128 83 l0 1 M128 83 l1 1 M135 83 l0 1 M135 83 l1 1 M140 83 l-1 1 M140 83 l1 1 M142 83 l-1 1 M142 83 l1 1 M59 84 l0 1 M59 84 l1 1 M63 84 l-1 1 M63 84 l0 1 M66 84 l0 1 M66 84 l1 1 M67 84 l-1 1 M67 84 l1 1 M73 84 l0 1 M73 84 l1 1 M74 84 l-1 1 M74 84 l1 1 M77 84 l-1 1 M77 84 l0 1 M78 84 l-1 1 M78 84 l0 1 M79 84 l-1 1 M79 84 l1 1 M80 84 l-1 1 M80 84 l0 1 M86 84 l0 1 M86 84 l1 1 M87 84 l0 1 M87 84 l1 1 M88 84 l-1 1 M88 84 l0 1 M90 84 l-1 1 M90 84 l1 1 M92 84 l0 1 M92 84 l1 1 M96 84 l-1 1 M96 84 l0 1 M99 84 l0 1 M99 84 l1 1 M100 84 l-1 1 M100 84 l1 1 M102 84 l-1 1 M102 84 l1 1 M103 84 l-1 1 M103 84 l0 1 M106 84 l0 1 M106 84 l1 1 M110 84 l-1 1 M110 84 l0 1 M112 84 l-1 1 M112 84 l1 1 M114 84 l0 1 M114 84 l1 1 M115 84 l-1 1 M115 84 l0 1 M116 84 l-1 1 M116 84 l0 1 M122 84 l0 1 M122 84 l1 1 M123 84 l-1 1 M123 84 l1 1 M124 84 l0 1 M124 84 l1 1 M125 84 l0 1 M125 84 l1 1 M128 84 l-1 1 M128 84 l1 1 M129 84 l-1 1 M129 84 l0 1 M135 84 l-1 1 M135 84 l1 1 M136 84 l-1 1 M136 84 l0 1 M139 84 l0 1 M139 84 l1 1 M143 84 l-1 1 M143 84 l0 1 M59 85 l-1 1 M59 85 l1 1 M60 85 l-1 1 M60 85 l0 1 M62 85 l0 1 M62 85 l1 1 M63 85 l-1 1 M63 85 l1 1 M67 85 l-1 1 M67 85 l0 1 M68 85 l-1 1 M68 85 l0 1 M74 85 l-1 1 M74 85 l0 1 M75 85 l-1 1 M75 85 l0 1 M76 85 l0 1 M76 85 l1 1 M79 85 l0 1 M79 85 l1 1 M86 85 l-1 1 M86 85 l1 1 M89 85 l0 1 M89 85 l1 1 M91 85 l-1 1 M91 85 l0 1 M92 85 l-1 1 M92 85 l1 1 M93 85 l-1 1 M93 85 l0 1 M95 85 l0 1 M95 85 l1 1 M96 85 l-1 1 M96 85 l1 1 M100 85 l-1 1 M100 85 l0 1 M102 85 l0 1 M102 85 l1 1 M106 85 l-1 1 M106 85 l1 1 M107 85 l-1 1 M107 85 l0 1 M109 85 l0 1 M109 85 l1 1 M110 85 l-1 1 M110 85 l1 1 M111 85 l0 1 M111 85 l1 1 M113 85 l-1 1 M113 85 l0 1 M116 85 l-1 1 M116 85 l1 1 M123 85 l-1 1 M123 85 l0 1 M126 85 l-1 1 M126 85 l0 1 M127 85 l0 1 M127 85 l1 1 M128 85 l0 1 M128 85 l1 1 M134 85 l0 1 M134 85 l1 1 M135 85 l0 1 M135 85 l1 1 M139 85 l-1 1 M139 85 l1 1 M140 85 l-1 1 M140 85 l0 1 M142 85 l0 1 M142 85 l1 1 M143 85 l-1 1 M143 85 l1 1 M58 86 l0 1 M58 86 l1 1 M59 86 l0 1 M59 86 l1 1 M63 86 l-1 1 M63 86 l0 1 M64 86 l-1 1 M64 86 l0 1 M66 86 l0 1 M66 86 l1 1 M68 86 l-1 1 M68 86 l1 1 M73 86 l0 1 M73 86 l1 1 M75 86 l-1 1 M75 86 l1 1 M76 86 l-1 1 M76 86 l1 1 M77 86 l-1 1 M77 86 l0 1 M79 86 l-1 1 M79 86 l1 1 M80 86 l-1 1 M80 86 l0 1 M85 86 l0 1 M85 86 l1 1 M87 86 l-1 1 M87 86 l0 1 M89 86 l-1 1 M89 86 l1 1 M92 86 l0 1 M92 86 l1 1 M96 86 l-1 1 M96 86 l0 1 M97 86 l-1 1 M97 86 l0 1 M99 86 l0 1 M99 86 l1 1 M100 86 l-1 1 M100 86 l1 1 M102 86 l-1 1 M102 86 l1 1 M103 86 l-1 1 M103 86 l0 1 M105 86 l0 1 M105 86 l1 1 M106 86 l0 1 M106 86 l1 1 M110 86 l-1 1 M110 86 l0 1 M113 86 l-1 1 M113 86 l1 1 M115 86 l0 1 M115 86 l1 1 M117 86 l-1 1 M117 86 l0 1 M122 86 l0 1 M122 86 l1 1 M123 86 l-1 1 M123 86 l1 1 M125 86 l0 1 M125 86 l1 1 M126 86 l-1 1 M126 86 l1 1 M127 86 l-1 1 M127 86 l1 1 M129 86 l-1 1 M129 86 l0 1 M134 86 l-1 1 M134 86 l1 1 M136 86 l-1 1 M136 86 l0 1 M138 86 l0 1 M138 86 l1 1 M139 86 l0 1 M139 86 l1 1 M143 86 l-1 1 M143 86 l0 1 M144 86 l-1 1 M144 86 l0 1 M58 87 l-1 1 M58 87 l1 1 M60 87 l-1 1 M60 87 l0 1 M62 87 l0 1 M62 87 l1 1 M64 87 l-1 1 M64 87 l1 1 M66 87 l-1 1 M66 87 l1 1 M69 87 l-1 1 M69 87 l0 1 M73 87 l-1 1 M73 87 l1 1 M75 87 l0 1 M75 87 l1 1 M78 87 l0 1 M78 87 l1 1 M79 87 l0 1 M79 87 l1 1 M85 87 l-1 1 M85 87 l1 1 M87 87 l-1 1 M87 87 l1 1 M88 87 l0 1 M88 87 l1 1 M90 87 l-1 1 M90 87 l0 1 M92 87 l-1 1 M92 87 l1 1 M93 87 l-1 1 M93 87 l0 1 M95 87 l0 1 M95 87 l1 1 M97 87 l-1 1 M97 87 l1 1 M100 87 l-1 1 M100 87 l0 1 M102 87 l0 1 M102 87 l1 1 M105 87 l-1 1 M105 87 l1 1 M107 87 l-1 1 M107 87 l0 1 M109 87 l0 1 M109 87 l1 1 M110 87 l-1 1 M110 87 l1 1 M112 87 l0 1 M112 87 l1 1 M114 87 l-1 1 M114 87 l0 1 M115 87 l-1 1 M115 87 l1 1 M117 87 l-1 1 M117 87 l1 1 M123 87 l-1 1 M123 87 l0 1 M124 87 l-1 1 M124 87 l0 1 M127 87 l-1 1 M127 87 l0 1 M129 87 l-1 1 M129 87 l1 1 M133 87 l0 1 M133 87 l1 1 M136 87 l-1 1 M136 87 l1 1 M138 87 l-1 1 M138 87 l1 1 M140 87 l-1 1 M140 87 l0 1 M142 87 l0 1 M142 87 l1 1 M144 87 l-1 1 M144 87 l1 1 M57 88 l0 1 M57 88 l1 1 M60 88 l-1 1 M60 88 l1 1 M62 88 l-1 1 M62 88 l1 1 M67 88 l-1 1 M67 88 l0 1 M68 88 l0 1 M68 88 l1 1 M69 88 l-1 1 M69 88 l1 1 M72 88 l0 1 M72 88 l1 1 M74 88 l-1 1 M74 88 l0 1 M75 88 l-1 1 M75 88 l1 1 M76 88 l-1 1 M76 88 l0 1 M78 88 l-1 1 M78 88 l1 1 M80 88 l-1 1 M80 88 l0 1 M84 88 l0 1 M84 88 l1 1 M90 88 l-1 1 M90 88 l1 1 M91 88 l0 1 M91 88 l1 1 M92 88 l0 1 M92 88 l1 1 M95 88 l-1 1 M95 88 l1 1 M98 88 l-1 1 M98 88 l0 1 M99 88 l0 1 M99 88 l1 1 M100 88 l-1 1 M100 88 l1 1 M102 88 l-1 1 M102 88 l1 1 M103 88 l-1 1 M103 88 l0 1 M104 88 l0 1 M104 88 l1 1 M107 88 l-1 1 M107 88 l1 1 M110 88 l-1 1 M110 88 l0 1 M111 88 l-1 1 M111 88 l0 1 M112 88 l-1 1 M112 88 l1 1 M118 88 l-1 1 M118 88 l0 1 M122 88 l0 1 M122 88 l1 1 M124 88 l-1 1 M124 88 l1 1 M126 88 l0 1 M126 88 l1 1 M127 88 l-1 1 M127 88 l1 1 M128 88 l0 1 M128 88 l1 1 M130 88 l-1 1 M130 88 l0 1 M133 88 l-1 1 M133 88 l1 1 M134 88 l-1 1 M134 88 l0 1 M135 88 l0 1 M135 88 l1 1 M140 88 l-1 1 M140 88 l1 1 M142 88 l-1 1 M142 88 l1 1 M145 88 l-1 1 M145 88 l0 1 M57 89 l-1 1 M57 89 l1 1 M58 89 l-1 1 M58 89 l0 1 M59 89 l0 1 M59 89 l1 1 M63 89 l-1 1 M63 89 l0 1 M66 89 l0 1 M66 89 l1 1 M67 89 l-1 1 M67 89 l1 1 M69 89 l-1 1 M69 89 l0 1 M70 89 l-1 1 M70 89 l0 1 M72 89 l-1 1 M72 89 l1 1 M75 89 l0 1 M75 89 l1 1 M77 89 l0 1 M77 89 l1 1 M80 89 l-1 1 M80 89 l1 1 M84 89 l-1 1 M84 89 l1 1 M85 89 l-1 1 M85 89 l0 1 M89 89 l0 1 M89 89 l1 1 M93 89 l-1 1 M93 89 l0 1 M94 89 l0 1 M94 89 l1 1 M96 89 l-1 1 M96 89 l0 1 M97 89 l0 1 M97 89 l1 1 M98 89 l-1 1 M98 89 l1 1 M100 89 l-1 1 M100 89 l0 1 M102 89 l0 1 M102 89 l1 1 M104 89 l-1 1 M104 89 l1 1 M105 89 l-1 1 M105 89 l0 1 M106 89 l0 1 M106 89 l1 1 M108 89 l-1 1 M108 89 l0 1 M109 89 l0 1 M109 89 l1 1 M113 89 l-1 1 M113 89 l0 1 M117 89 l0 1 M117 89 l1 1 M118 89 l-1 1 M118 89 l1 1 M122 89 l-1 1 M122 89 l1 1 M125 89 l-1 1 M125 89 l0 1 M127 89 l-1 1 M127 89 l0 1 M130 89 l-1 1 M130 89 l1 1 M132 89 l0 1 M132 89 l1 1 M133 89 l0 1 M133 89 l1 1 M135 89 l-1 1 M135 89 l1 1 M136 89 l-1 1 M136 89 l0 1 M139 89 l0 1 M139 89 l1 1 M143 89 l-1 1 M143 89 l0 1 M144 89 l0 1 M144 89 l1 1 M145 89 l-1 1 M145 89 l1 1 M56 90 l0 1 M56 90 l1 1 M57 90 l0 1 M57 90 l1 1 M59 90 l-1 1 M59 90 l1 1 M60 90 l-1 1 M60 90 l0 1 M62 90 l0 1 M62 90 l1 1 M63 90 l-1 1 M63 90 l1 1 M67 90 l-1 1 M67 90 l0 1 M70 90 l-1 1 M70 90 l1 1 M71 90 l0 1 M71 90 l1 1 M73 90 l-1 1 M73 90 l0 1 M75 90 l-1 1 M75 90 l1 1 M76 90 l-1 1 M76 90 l0 1 M77 90 l-1 1 M77 90 l1 1 M78 90 l-1 1 M78 90 l0 1 M79 90 l0 1 M79 90 l1 1 M81 90 l-1 1 M81 90 l0 1 M83 90 l0 1 M83 90 l1 1 M84 90 l0 1 M84 90 l1 1 M89 90 l-1 1 M89 90 l1 1 M90 90 l-1 1 M90 90 l0 1 M92 90 l0 1 M92 90 l1 1 M93 90 l-1 1 M93 90 l1 1 M94 90 l-1 1 M94 90 l1 1 M96 90 l-1 1 M96 90 l1 1 M98 90 l-1 1 M98 90 l0 1 M100 90 l-1 1 M100 90 l1 1 M102 90 l-1 1 M102 90 l1 1 M104 90 l0 1 M104 90 l1 1 M106 90 l-1 1 M106 90 l1 1 M108 90 l-1 1 M108 90 l1 1 M109 90 l-1 1 M109 90 l1 1 M110 90 l-1 1 M110 90 l0 1 M112 90 l0 1 M112 90 l1 1 M113 90 l-1 1 M113 90 l1 1 M118 90 l-1 1 M118 90 l0 1 M119 90 l-1 1 M119 90 l0 1 M121 90 l0 1 M121 90 l1 1 M123 90 l-1 1 M123 90 l0 1 M124 90 l0 1 M124 90 l1 1 M125 90 l-1 1 M125 90 l1 1 M126 90 l0 1 M126 90 l1 1 M127 90 l-1 1 M127 90 l1 1 M129 90 l0 1 M129 90 l1 1 M131 90 l-1 1 M131 90 l0 1 M132 90 l-1 1 M132 90 l1 1 M135 90 l0 1 M135 90 l1 1 M139 90 l-1 1 M139 90 l1 1 M140 90 l-1 1 M140 90 l0 1 M142 90 l0 1 M142 90 l1 1 M143 90 l-1 1 M143 90 l1 1 M145 90 l-1 1 M145 90 l0 1 M146 90 l-1 1 M146 90 l0 1 M56 91 l-1 1 M56 91 l1 1 M59 91 l0 1 M59 91 l1 1 M63 91 l-1 1 M63 91 l0 1 M64 91 l-1 1 M64 91 l0 1 M66 91 l0 1 M66 91 l1 1 M67 91 l-1 1 M67 91 l1 1 M69 91 l0 1 M69 91 l1 1 M73 91 l-1 1 M73 91 l1 1 M74 91 l0 1 M74 91 l1 1 M75 91 l0 1 M75 91 l1 1 M77 91 l0 1 M77 91 l1 1 M79 91 l-1 1 M79 91 l1 1 M81 91 l-1 1 M81 91 l1 1 M83 91 l-1 1 M83 91 l1 1 M85 91 l-1 1 M85 91 l0 1 M88 91 l0 1 M88 91 l1 1 M89 91 l0 1 M89 91 l1 1 M94 91 l-1 1 M94 91 l0 1 M98 91 l-1 1 M98 91 l1 1 M99 91 l0 1 M99 91 l1 1 M103 91 l-1 1 M103 91 l0 1 M104 91 l-1 1 M104 91 l1 1 M108 91 l0 1 M108 91 l1 1 M113 91 l-1 1 M113 91 l0 1 M114 91 l-1 1 M114 91 l0 1 M117 91 l0 1 M117 91 l1 1 M119 91 l-1 1 M119 91 l1 1 M121 91 l-1 1 M121 91 l1 1 M123 91 l-1 1 M123 91 l1 1 M125 91 l-1 1 M125 91 l0 1 M127 91 l-1 1 M127 91 l0 1 M128 91 l-1 1 M128 91 l0 1 M129 91 l-1 1 M129 91 l1 1 M133 91 l-1 1 M133 91 l0 1 M135 91 l-1 1 M135 91 l1 1 M136 91 l-1 1 M136 91 l0 1 M138 91 l0 1 M138 91 l1 1 M139 91 l0 1 M139 91 l1 1 M143 91 l-1 1 M143 91 l0 1 M146 91 l-1 1 M146 91 l1 1 M55 92 l0 1 M55 92 l1 1 M57 92 l-1 1 M57 92 l0 1 M59 92 l-1 1 M59 92 l1 1 M60 92 l-1 1 M60 92 l0 1 M62 92 l0 1 M62 92 l1 1 M64 92 l-1 1 M64 92 l1 1 M67 92 l-1 1 M67 92 l0 1 M68 92 l-1 1 M68 92 l0 1 M69 92 l-1 1 M69 92 l1 1 M70 92 l-1 1 M70 92 l0 1 M72 92 l0 1 M72 92 l1 1 M76 92 l-1 1 M76 92 l0 1 M77 92 l-1 1 M77 92 l1 1 M85 92 l-1 1 M85 92 l1 1 M88 92 l-1 1 M88 92 l1 1 M90 92 l-1 1 M90 92 l0 1 M93 92 l0 1 M93 92 l1 1 M94 92 l-1 1 M94 92 l1 1 M97 92 l0 1 M97 92 l1 1 M100 92 l-1 1 M100 92 l0 1 M102 92 l0 1 M102 92 l1 1 M105 92 l-1 1 M105 92 l0 1 M108 92 l-1 1 M108 92 l1 1 M109 92 l-1 1 M109 92 l0 1 M112 92 l0 1 M112 92 l1 1 M114 92 l-1 1 M114 92 l1 1 M117 92 l-1 1 M117 92 l1 1 M125 92 l-1 1 M125 92 l1 1 M126 92 l0 1 M126 92 l1 1 M130 92 l-1 1 M130 92 l0 1 M132 92 l0 1 M132 92 l1 1 M133 92 l-1 1 M133 92 l1 1 M134 92 l0 1 M134 92 l1 1 M135 92 l0 1 M135 92 l1 1 M138 92 l-1 1 M138 92 l1 1 M140 92 l-1 1 M140 92 l0 1 M142 92 l0 1 M142 92 l1 1 M143 92 l-1 1 M143 92 l1 1 M145 92 l0 1 M145 92 l1 1 M147 92 l-1 1 M147 92 l0 1 M55 93 l-1 1 M55 93 l1 1 M57 93 l-1 1 M57 93 l1 1 M58 93 l0 1 M58 93 l1 1 M59 93 l0 1 M59 93 l1 1 M62 93 l-1 1 M62 93 l1 1 M65 93 l-1 1 M65 93 l0 1 M66 93 l0 1 M66 93 l1 1 M69 93 l0 1 M69 93 l1 1 M72 93 l-1 1 M72 93 l1 1 M73 93 l-1 1 M73 93 l0 1 M75 93 l0 1 M75 93 l1 1 M78 93 l-1 1 M78 93 l0 1 M84 93 l0 1 M84 93 l1 1 M86 93 l-1 1 M86 93 l0 1 M87 93 l0 1 M87 93 l1 1 M90 93 l-1 1 M90 93 l1 1 M94 93 l-1 1 M94 93 l0 1 M95 93 l-1 1 M95 93 l0 1 M97 93 l-1 1 M97 93 l1 1 M98 93 l-1 1 M98 93 l0 1 M99 93 l0 1 M99 93 l1 1 M100 93 l-1 1 M100 93 l1 1 M102 93 l-1 1 M102 93 l1 1 M103 93 l-1 1 M103 93 l0 1 M104 93 l0 1 M104 93 l1 1 M105 93 l-1 1 M105 93 l1 1 M107 93 l0 1 M107 93 l1 1 M108 93 l0 1 M108 93 l1 1 M112 93 l-1 1 M112 93 l1 1 M115 93 l-1 1 M115 93 l0 1 M116 93 l0 1 M116 93 l1 1 M118 93 l-1 1 M118 93 l0 1 M124 93 l0 1 M124 93 l1 1 M127 93 l-1 1 M127 93 l0 1 M129 93 l0 1 M129 93 l1 1 M130 93 l-1 1 M130 93 l1 1 M133 93 l-1 1 M133 93 l0 1 M136 93 l-1 1 M136 93 l0 1 M137 93 l0 1 M137 93 l1 1 M140 93 l-1 1 M140 93 l1 1 M143 93 l-1 1 M143 93 l0 1 M144 93 l-1 1 M144 93 l0 1 M145 93 l-1 1 M145 93 l1 1 M147 93 l-1 1 M147 93 l1 1 M54 94 l0 1 M54 94 l1 1 M60 94 l-1 1 M60 94 l0 1 M61 94 l0 1 M61 94 l1 1 M63 94 l-1 1 M63 94 l0 1 M64 94 l0 1 M64 94 l1 1 M65 94 l-1 1 M65 94 l1 1 M66 94 l-1 1 M66 94 l1 1 M67 94 l-1 1 M67 94 l0 1 M69 94 l-1 1 M69 94 l1 1 M70 94 l-1 1 M70 94 l0 1 M71 94 l0 1 M71 94 l1 1 M72 94 l0 1 M72 94 l1 1 M75 94 l-1 1 M75 94 l1 1 M76 94 l-1 1 M76 94 l0 1 M77 94 l0 1 M77 94 l1 1 M78 94 l-1 1 M78 94 l1 1 M84 94 l-1 1 M84 94 l1 1 M86 94 l-1 1 M86 94 l1 1 M87 94 l-1 1 M87 94 l1 1 M88 94 l-1 1 M88 94 l0 1 M89 94 l0 1 M89 94 l1 1 M91 94 l-1 1 M91 94 l0 1 M93 94 l0 1 M93 94 l1 1 M95 94 l-1 1 M95 94 l1 1 M96 94 l0 1 M96 94 l1 1 M97 94 l0 1 M97 94 l1 1 M100 94 l-1 1 M100 94 l0 1 M102 94 l0 1 M102 94 l1 1 M105 94 l-1 1 M105 94 l0 1 M106 94 l-1 1 M106 94 l0 1 M107 94 l-1 1 M107 94 l1 1 M109 94 l-1 1 M109 94 l0 1 M111 94 l0 1 M111 94 l1 1 M113 94 l-1 1 M113 94 l0 1 M114 94 l0 1 M114 94 l1 1 M115 94 l-1 1 M115 94 l1 1 M116 94 l-1 1 M116 94 l1 1 M118 94 l-1 1 M118 94 l1 1 M124 94 l-1 1 M124 94 l1 1 M125 94 l-1 1 M125 94 l0 1 M126 94 l0 1 M126 94 l1 1 M127 94 l-1 1 M127 94 l1 1 M130 94 l-1 1 M130 94 l0 1 M131 94 l-1 1 M131 94 l0 1 M132 94 l0 1 M132 94 l1 1 M133 94 l-1 1 M133 94 l1 1 M135 94 l0 1 M135 94 l1 1 M136 94 l-1 1 M136 94 l1 1 M137 94 l-1 1 M137 94 l1 1 M138 94 l-1 1 M138 94 l0 1 M139 94 l0 1 M139 94 l1 1 M141 94 l-1 1 M141 94 l0 1 M142 94 l0 1 M142 94 l1 1 M148 94 l-1 1 M148 94 l0 1 M54 95 l-1 1 M54 95 l1 1 M55 95 l-1 1 M55 95 l0 1 M59 95 l0 1 M59 95 l1 1 M60 95 l-1 1 M60 95 l1 1 M61 95 l-1 1 M61 95 l1 1 M63 95 l-1 1 M63 95 l1 1 M68 95 l0 1 M68 95 l1 1 M69 95 l0 1 M69 95 l1 1 M71 95 l-1 1 M71 95 l1 1 M73 95 l-1 1 M73 95 l0 1 M74 95 l0 1 M74 95 l1 1 M75 95 l0 1 M75 95 l1 1 M78 95 l-1 1 M78 95 l0 1 M79 95 l-1 1 M79 95 l0 1 M83 95 l0 1 M83 95 l1 1 M86 95 l0 1 M86 95 l1 1 M89 95 l-1 1 M89 95 l1 1 M91 95 l-1 1 M91 95 l1 1 M93 95 l-1 1 M93 95 l1 1 M98 95 l-1 1 M98 95 l0 1 M99 95 l0 1 M99 95 l1 1 M100 95 l-1 1 M100 95 l1 1 M102 95 l-1 1 M102 95 l1 1 M103 95 l-1 1 M103 95 l0 1 M104 95 l0 1 M104 95 l1 1 M109 95 l-1 1 M109 95 l1 1 M111 95 l-1 1 M111 95 l1 1 M113 95 l-1 1 M113 95 l1 1 M116 95 l-1 1 M116 95 l0 1 M119 95 l-1 1 M119 95 l0 1 M123 95 l0 1 M123 95 l1 1 M124 95 l0 1 M124 95 l1 1 M127 95 l-1 1 M127 95 l0 1 M128 95 l-1 1 M128 95 l0 1 M129 95 l0 1 M129 95 l1 1 M131 95 l-1 1 M131 95 l1 1 M133 95 l-1 1 M133 95 l0 1 M134 95 l-1 1 M134 95 l0 1 M139 95 l-1 1 M139 95 l1 1 M141 95 l-1 1 M141 95 l1 1 M142 95 l-1 1 M142 95 l1 1 M143 95 l-1 1 M143 95 l0 1 M147 95 l0 1 M147 95 l1 1 M148 95 l-1 1 M148 95 l1 1 M53 96 l0 1 M53 96 l1 1 M54 96 l0 1 M54 96 l1 1 M61 96 l-1 1 M61 96 l0 1 M64 96 l-1 1 M64 96 l0 1 M68 96 l-1 1 M68 96 l1 1 M73 96 l-1 1 M73 96 l1 1 M74 96 l-1 1 M74 96 l1 1 M76 96 l-1 1 M76 96 l0 1 M77 96 l0 1 M77 96 l1 1 M79 96 l-1 1 M79 96 l1 1 M83 96 l-1 1 M83 96 l1 1 M84 96 l-1 1 M84 96 l0 1 M86 96 l-1 1 M86 96 l1 1 M87 96 l-1 1 M87 96 l0 1 M88 96 l0 1 M88 96 l1 1 M94 96 l-1 1 M94 96 l0 1 M97 96 l0 1 M97 96 l1 1 M98 96 l-1 1 M98 96 l1 1 M100 96 l-1 1 M100 96 l0 1 M102 96 l0 1 M102 96 l1 1 M104 96 l-1 1 M104 96 l1 1 M105 96 l-1 1 M105 96 l0 1 M108 96 l0 1 M108 96 l1 1 M114 96 l-1 1 M114 96 l0 1 M115 96 l0 1 M115 96 l1 1 M116 96 l-1 1 M116 96 l1 1 M118 96 l0 1 M118 96 l1 1 M119 96 l-1 1 M119 96 l1 1 M123 96 l-1 1 M123 96 l1 1 M125 96 l-1 1 M125 96 l0 1 M126 96 l0 1 M126 96 l1 1 M128 96 l-1 1 M128 96 l1 1 M129 96 l-1 1 M129 96 l1 1 M134 96 l-1 1 M134 96 l1 1 M138 96 l0 1 M138 96 l1 1 M141 96 l0 1 M141 96 l1 1 M148 96 l-1 1 M148 96 l0 1 M149 96 l-1 1 M149 96 l0 1 M53 97 l-1 1 M53 97 l1 1 M55 97 l-1 1 M55 97 l0 1 M60 97 l0 1 M60 97 l1 1 M61 97 l-1 1 M61 97 l1 1 M63 97 l0 1 M63 97 l1 1 M64 97 l-1 1 M64 97 l1 1 M67 97 l0 1 M67 97 l1 1 M69 97 l-1 1 M69 97 l0 1 M72 97 l0 1 M72 97 l1 1 M73 97 l0 1 M73 97 l1 1 M74 97 l-1 1 M74 97 l0 1 M76 97 l-1 1 M76 97 l1 1 M77 97 l-1 1 M77 97 l1 1 M80 97 l-1 1 M80 97 l0 1 M82 97 l0 1 M82 97 l1 1 M83 97 l0 1 M83 97 l1 1 M85 97 l0 1 M85 97 l1 1 M86 97 l0 1 M86 97 l1 1 M88 97 l-1 1 M88 97 l1 1 M89 97 l-1 1 M89 97 l0 1 M93 97 l0 1 M93 97 l1 1 M94 97 l-1 1 M94 97 l1 1 M98 97 l-1 1 M98 97 l0 1 M100 97 l-1 1 M100 97 l1 1 M102 97 l-1 1 M102 97 l1 1 M104 97 l0 1 M104 97 l1 1 M108 97 l-1 1 M108 97 l1 1 M109 97 l-1 1 M109 97 l0 1 M113 97 l0 1 M113 97 l1 1 M114 97 l-1 1 M114 97 l1 1 M116 97 l-1 1 M116 97 l0 1 M117 97 l-1 1 M117 97 l0 1 M119 97 l-1 1 M119 97 l0 1 M120 97 l-1 1 M120 97 l0 1 M122 97 l0 1 M122 97 l1 1 M125 97 l-1 1 M125 97 l1 1 M126 97 l-1 1 M126 97 l1 1 M128 97 l0 1 M128 97 l1 1 M129 97 l-1 1 M129 97 l0 1 M130 97 l-1 1 M130 97 l0 1 M133 97 l0 1 M133 97 l1 1 M135 97 l-1 1 M135 97 l0 1 M138 97 l-1 1 M138 97 l1 1 M139 97 l-1 1 M139 97 l0 1 M141 97 l-1 1 M141 97 l1 1 M142 97 l-1 1 M142 97 l0 1 M147 97 l0 1 M147 97 l1 1 M149 97 l-1 1 M149 97 l1 1 M52 98 l0 1 M52 98 l1 1 M55 98 l-1 1 M55 98 l1 1 M61 98 l-1 1 M61 98 l0 1 M62 98 l-1 1 M62 98 l0 1 M64 98 l-1 1 M64 98 l0 1 M65 98 l-1 1 M65 98 l0 1 M67 98 l-1 1 M67 98 l1 1 M69 98 l-1 1 M69 98 l1 1 M72 98 l-1 1 M72 98 l1 1 M75 98 l0 1 M75 98 l1 1 M76 98 l0 1 M76 98 l1 1 M77 98 l-1 1 M77 98 l0 1 M78 98 l-1 1 M78 98 l0 1 M79 98 l0 1 M79 98 l1 1 M80 98 l-1 1 M80 98 l1 1 M82 98 l-1 1 M82 98 l1 1 M84 98 l-1 1 M84 98 l0 1 M85 98 l-1 1 M85 98 l1 1 M88 98 l0 1 M88 98 l1 1 M94 98 l-1 1 M94 98 l0 1 M95 98 l-1 1 M95 98 l0 1 M97 98 l0 1 M97 98 l1 1 M98 98 l-1 1 M98 98 l1 1 M99 98 l0 1 M99 98 l1 1 M103 98 l-1 1 M103 98 l0 1 M104 98 l-1 1 M104 98 l1 1 M105 98 l-1 1 M105 98 l0 1 M107 98 l0 1 M107 98 l1 1 M108 98 l0 1 M108 98 l1 1 M114 98 l-1 1 M114 98 l0 1 M117 98 l-1 1 M117 98 l1 1 M118 98 l0 1 M118 98 l1 1 M120 98 l-1 1 M120 98 l1 1 M122 98 l-1 1 M122 98 l1 1 M123 98 l-1 1 M123 98 l0 1 M124 98 l0 1 M124 98 l1 1 M125 98 l0 1 M125 98 l1 1 M126 98 l-1 1 M126 98 l0 1 M127 98 l-1 1 M127 98 l0 1 M130 98 l-1 1 M130 98 l1 1 M133 98 l-1 1 M133 98 l1 1 M135 98 l-1 1 M135 98 l1 1 M137 98 l0 1 M137 98 l1 1 M138 98 l0 1 M138 98 l1 1 M140 98 l0 1 M140 98 l1 1 M141 98 l0 1 M141 98 l1 1 M147 98 l-1 1 M147 98 l1 1 M150 98 l-1 1 M150 98 l0 1 M52 99 l-1 1 M52 99 l1 1 M53 99 l-1 1 M53 99 l0 1 M54 99 l0 1 M54 99 l1 1 M56 99 l-1 1 M56 99 l0 1 M60 99 l0 1 M60 99 l1 1 M62 99 l-1 1 M62 99 l1 1 M63 99 l0 1 M63 99 l1 1 M65 99 l-1 1 M65 99 l1 1 M66 99 l0 1 M66 99 l1 1 M70 99 l-1 1 M70 99 l0 1 M71 99 l0 1 M71 99 l1 1 M73 99 l-1 1 M73 99 l0 1 M75 99 l-1 1 M75 99 l1 1 M78 99 l-1 1 M78 99 l1 1 M80 99 l-1 1 M80 99 l0 1 M86 99 l-1 1 M86 99 l0 1 M88 99 l-1 1 M88 99 l1 1 M89 99 l-1 1 M89 99 l0 1 M93 99 l0 1 M93 99 l1 1 M95 99 l-1 1 M95 99 l1 1 M98 99 l-1 1 M98 99 l0 1 M100 99 l-1 1 M100 99 l0 1 M102 99 l0 1 M102 99 l1 1 M104 99 l0 1 M104 99 l1 1 M107 99 l-1 1 M107 99 l1 1 M109 99 l-1 1 M109 99 l0 1 M113 99 l0 1 M113 99 l1 1 M114 99 l-1 1 M114 99 l1 1 M116 99 l0 1 M116 99 l1 1 M122 99 l0 1 M122 99 l1 1 M124 99 l-1 1 M124 99 l1 1 M127 99 l-1 1 M127 99 l1 1 M129 99 l0 1 M129 99 l1 1 M131 99 l-1 1 M131 99 l0 1 M132 99 l0 1 M132 99 l1 1 M136 99 l-1 1 M136 99 l0 1 M137 99 l-1 1 M137 99 l1 1 M139 99 l-1 1 M139 99 l0 1 M140 99 l-1 1 M140 99 l1 1 M142 99 l-1 1 M142 99 l0 1 M146 99 l0 1 M146 99 l1 1 M148 99 l-1 1 M148 99 l0 1 M149 99 l0 1 M149 99 l1 1 M150 99 l-1 1 M150 99 l1 1 M51 100 l0 1 M51 100 l1 1 M52 100 l0 1 M52 100 l1 1 M54 100 l-1 1 M54 100 l1 1 M56 100 l-1 1 M56 100 l1 1 M60 100 l-1 1 M60 100 l1 1 M67 100 l-1 1 M67 100 l0 1 M69 100 l0 1 M69 100 l1 1 M70 100 l-1 1 M70 100 l1 1 M71 100 l-1 1 M71 100 l1 1 M73 100 l-1 1 M73 100 l1 1 M74 100 l0 1 M74 100 l1 1 M76 100 l-1 1 M76 100 l0 1 M77 100 l0 1 M77 100 l1 1 M80 100 l-1 1 M80 100 l1 1 M85 100 l0 1 M85 100 l1 1 M86 100 l-1 1 M86 100 l1 1 M87 100 l0 1 M87 100 l1 1 M88 100 l0 1 M88 100 l1 1 M93 100 l-1 1 M93 100 l1 1 M96 100 l-1 1 M96 100 l0 1 M97 100 l0 1 M97 100 l1 1 M98 100 l-1 1 M98 100 l1 1 M99 100 l0 1 M99 100 l1 1 M100 100 l-1 1 M100 100 l1 1 M102 100 l-1 1 M102 100 l1 1 M103 100 l-1 1 M103 100 l0 1 M104 100 l-1 1 M104 100 l1 1 M105 100 l-1 1 M105 100 l0 1 M106 100 l0 1 M106 100 l1 1 M109 100 l-1 1 M109 100 l1 1 M114 100 l-1 1 M114 100 l0 1 M115 100 l-1 1 M115 100 l0 1 M116 100 l-1 1 M116 100 l1 1 M117 100 l-1 1 M117 100 l0 1 M122 100 l-1 1 M122 100 l1 1 M125 100 l-1 1 M125 100 l0 1 M126 100 l0 1 M126 100 l1 1 M128 100 l-1 1 M128 100 l0 1 M129 100 l-1 1 M129 100 l1 1 M131 100 l-1 1 M131 100 l1 1 M132 100 l-1 1 M132 100 l1 1 M133 100 l-1 1 M133 100 l0 1 M135 100 l0 1 M135 100 l1 1 M142 100 l-1 1 M142 100 l1 1 M146 100 l-1 1 M146 100 l1 1 M148 100 l-1 1 M148 100 l1 1 M150 100 l-1 1 M150 100 l0 1 M151 100 l-1 1 M151 100 l0 1" stroke="black" stroke-width="0.1" stroke-linecap="round" />
</svg>
