<!-- ./tga 5176002 2 12 left.svg -->
<svg viewBox="2.9 -0.1 36.2 13.2" xmlns="http://www.w3.org/2000/svg">
<path id="left" d="M13 0 l0 1 M13 1 l1 1 M14 2 l-1 1 M14 2 l0 1 M13 3 l-1 1 M13 3 l1 1 M14 3 l1 1 M12 4 l-1 1 M12 4 l1 1 M14 4 l-1 1 M14 4 l0 1 M15 4 l-1 1 M15 4 l0 1 M11 5 l-1 1 M11 5 l1 1 M14 5 l-1 1 M14 5 l0 1 M14 5 l1 1 M15 5 l1 1 M10 6 l-1 1 M10 6 l1 1 M12 6 l-1 1 M12 6 l0 1 M13 6 l-1 1 M13 6 l1 1 M14 6 l1 1 M15 6 l-1 1 M15 6 l0 1 M16 6 l-1 1 M16 6 l0 1 M9 7 l-1 1 M9 7 l1 1 M12 7 l-1 1 M12 7 l0 1 M12 7 l1 1 M15 7 l0 1 M16 7 l1 1 M8 8 l-1 1 M8 8 l1 1 M10 8 l-1 1 M10 8 l0 1 M11 8 l-1 1 M11 8 l1 1 M12 8 l1 1 M13 8 l-1 1 M13 8 l0 1 M15 8 l1 1 M17 8 l-1 1 M17 8 l0 1 M7 9 l-1 1 M7 9 l1 1 M10 9 l-1 1 M10 9 l0 1 M10 9 l1 1 M17 9 l1 1 M6 10 l-1 1 M6 10 l1 1 M8 10 l-1 1 M8 10 l0 1 M9 10 l-1 1 M9 10 l1 1 M10 10 l1 1 M11 10 l-1 1 M11 10 l0 1 M18 10 l-1 1 M18 10 l0 1 M5 11 l-1 1 M5 11 l1 1 M8 11 l-1 1 M8 11 l0 1 M8 11 l1 1 M17 11 l-1 1 M17 11 l1 1 M18 11 l1 1 M4 12 l-1 1 M4 12 l1 1 M6 12 l-1 1 M6 12 l0 1 M7 12 l-1 1 M7 12 l1 1 M8 12 l1 1 M9 12 l-1 1 M9 12 l0 1 M16 12 l-1 1 M16 12 l1 1 M18 12 l-1 1 M18 12 l0 1 M19 12 l-1 1 M19 12 l0 1" stroke="black" stroke-width="0.1" stroke-linecap="round" />
<use href="#left" transform="scale(-1 1)" transform-origin="21 0"/>
</svg>
