<!-- ./tga 5005000 5 31 sierpinski.svg -->
<svg viewBox="-0.1 -0.1 64.2 32.2" xmlns="http://www.w3.org/2000/svg">
<path d="M32 0 l-1 1 M32 0 l1 1 M31 1 l-1 1 M31 1 l1 1 M33 1 l-1 1 M33 1 l1 1 M30 2 l-1 1 M30 2 l1 1 M34 2 l-1 1 M34 2 l1 1 M29 3 l-1 1 M29 3 l1 1 M31 3 l-1 1 M31 3 l1 1 M33 3 l-1 1 M33 3 l1 1 M35 3 l-1 1 M35 3 l1 1 M28 4 l-1 1 M28 4 l1 1 M36 4 l-1 1 M36 4 l1 1 M27 5 l-1 1 M27 5 l1 1 M29 5 l-1 1 M29 5 l1 1 M35 5 l-1 1 M35 5 l1 1 M37 5 l-1 1 M37 5 l1 1 M26 6 l-1 1 M26 6 l1 1 M30 6 l-1 1 M30 6 l1 1 M34 6 l-1 1 M34 6 l1 1 M38 6 l-1 1 M38 6 l1 1 M25 7 l-1 1 M25 7 l1 1 M27 7 l-1 1 M27 7 l1 1 M29 7 l-1 1 M29 7 l1 1 M31 7 l-1 1 M31 7 l1 1 M33 7 l-1 1 M33 7 l1 1 M35 7 l-1 1 M35 7 l1 1 M37 7 l-1 1 M37 7 l1 1 M39 7 l-1 1 M39 7 l1 1 M24 8 l-1 1 M24 8 l1 1 M40 8 l-1 1 M40 8 l1 1 M23 9 l-1 1 M23 9 l1 1 M25 9 l-1 1 M25 9 l1 1 M39 9 l-1 1 M39 9 l1 1 M41 9 l-1 1 M41 9 l1 1 M22 10 l-1 1 M22 10 l1 1 M26 10 l-1 1 M26 10 l1 1 M38 10 l-1 1 M38 10 l1 1 M42 10 l-1 1 M42 10 l1 1 M21 11 l-1 1 M21 11 l1 1 M23 11 l-1 1 M23 11 l1 1 M25 11 l-1 1 M25 11 l1 1 M27 11 l-1 1 M27 11 l1 1 M37 11 l-1 1 M37 11 l1 1 M39 11 l-1 1 M39 11 l1 1 M41 11 l-1 1 M41 11 l1 1 M43 11 l-1 1 M43 11 l1 1 M20 12 l-1 1 M20 12 l1 1 M28 12 l-1 1 M28 12 l1 1 M36 12 l-1 1 M36 12 l1 1 M44 12 l-1 1 M44 12 l1 1 M19 13 l-1 1 M19 13 l1 1 M21 13 l-1 1 M21 13 l1 1 M27 13 l-1 1 M27 13 l1 1 M29 13 l-1 1 M29 13 l1 1 M35 13 l-1 1 M35 13 l1 1 M37 13 l-1 1 M37 13 l1 1 M43 13 l-1 1 M43 13 l1 1 M45 13 l-1 1 M45 13 l1 1 M18 14 l-1 1 M18 14 l1 1 M22 14 l-1 1 M22 14 l1 1 M26 14 l-1 1 M26 14 l1 1 M30 14 l-1 1 M30 14 l1 1 M34 14 l-1 1 M34 14 l1 1 M38 14 l-1 1 M38 14 l1 1 M42 14 l-1 1 M42 14 l1 1 M46 14 l-1 1 M46 14 l1 1 M17 15 l-1 1 M17 15 l1 1 M19 15 l-1 1 M19 15 l1 1 M21 15 l-1 1 M21 15 l1 1 M23 15 l-1 1 M23 15 l1 1 M25 15 l-1 1 M25 15 l1 1 M27 15 l-1 1 M27 15 l1 1 M29 15 l-1 1 M29 15 l1 1 M31 15 l-1 1 M31 15 l1 1 M33 15 l-1 1 M33 15 l1 1 M35 15 l-1 1 M35 15 l1 1 M37 15 l-1 1 M37 15 l1 1 M39 15 l-1 1 M39 15 l1 1 M41 15 l-1 1 M41 15 l1 1 M43 15 l-1 1 M43 15 l1 1 M45 15 l-1 1 M45 15 l1 1 M47 15 l-1 1 M47 15 l1 1 M16 16 l-1 1 M16 16 l1 1 M48 16 l-1 1 M48 16 l1 1 M15 17 l-1 1 M15 17 l1 1 M17 17 l-1 1 M17 17 l1 1 M47 17 l-1 1 M47 17 l1 1 M49 17 l-1 1 M49 17 l1 1 M14 18 l-1 1 M14 18 l1 1 M18 18 l-1 1 M18 18 l1 1 M46 18 l-1 1 M46 18 l1 1 M50 18 l-1 1 M50 18 l1 1 M13 19 l-1 1 M13 19 l1 1 M15 19 l-1 1 M15 19 l1 1 M17 19 l-1 1 M17 19 l1 1 M19 19 l-1 1 M19 19 l1 1 M45 19 l-1 1 M45 19 l1 1 M47 19 l-1 1 M47 19 l1 1 M49 19 l-1 1 M49 19 l1 1 M51 19 l-1 1 M51 19 l1 1 M12 20 l-1 1 M12 20 l1 1 M20 20 l-1 1 M20 20 l1 1 M44 20 l-1 1 M44 20 l1 1 M52 20 l-1 1 M52 20 l1 1 M11 21 l-1 1 M11 21 l1 1 M13 21 l-1 1 M13 21 l1 1 M19 21 l-1 1 M19 21 l1 1 M21 21 l-1 1 M21 21 l1 1 M43 21 l-1 1 M43 21 l1 1 M45 21 l-1 1 M45 21 l1 1 M51 21 l-1 1 M51 21 l1 1 M53 21 l-1 1 M53 21 l1 1 M10 22 l-1 1 M10 22 l1 1 M14 22 l-1 1 M14 22 l1 1 M18 22 l-1 1 M18 22 l1 1 M22 22 l-1 1 M22 22 l1 1 M42 22 l-1 1 M42 22 l1 1 M46 22 l-1 1 M46 22 l1 1 M50 22 l-1 1 M50 22 l1 1 M54 22 l-1 1 M54 22 l1 1 M9 23 l-1 1 M9 23 l1 1 M11 23 l-1 1 M11 23 l1 1 M13 23 l-1 1 M13 23 l1 1 M15 23 l-1 1 M15 23 l1 1 M17 23 l-1 1 M17 23 l1 1 M19 23 l-1 1 M19 23 l1 1 M21 23 l-1 1 M21 23 l1 1 M23 23 l-1 1 M23 23 l1 1 M41 23 l-1 1 M41 23 l1 1 M43 23 l-1 1 M43 23 l1 1 M45 23 l-1 1 M45 23 l1 1 M47 23 l-1 1 M47 23 l1 1 M49 23 l-1 1 M49 23 l1 1 M51 23 l-1 1 M51 23 l1 1 M53 23 l-1 1 M53 23 l1 1 M55 23 l-1 1 M55 23 l1 1 M8 24 l-1 1 M8 24 l1 1 M24 24 l-1 1 M24 24 l1 1 M40 24 l-1 1 M40 24 l1 1 M56 24 l-1 1 M56 24 l1 1 M7 25 l-1 1 M7 25 l1 1 M9 25 l-1 1 M9 25 l1 1 M23 25 l-1 1 M23 25 l1 1 M25 25 l-1 1 M25 25 l1 1 M39 25 l-1 1 M39 25 l1 1 M41 25 l-1 1 M41 25 l1 1 M55 25 l-1 1 M55 25 l1 1 M57 25 l-1 1 M57 25 l1 1 M6 26 l-1 1 M6 26 l1 1 M10 26 l-1 1 M10 26 l1 1 M22 26 l-1 1 M22 26 l1 1 M26 26 l-1 1 M26 26 l1 1 M38 26 l-1 1 M38 26 l1 1 M42 26 l-1 1 M42 26 l1 1 M54 26 l-1 1 M54 26 l1 1 M58 26 l-1 1 M58 26 l1 1 M5 27 l-1 1 M5 27 l1 1 M7 27 l-1 1 M7 27 l1 1 M9 27 l-1 1 M9 27 l1 1 M11 27 l-1 1 M11 27 l1 1 M21 27 l-1 1 M21 27 l1 1 M23 27 l-1 1 M23 27 l1 1 M25 27 l-1 1 M25 27 l1 1 M27 27 l-1 1 M27 27 l1 1 M37 27 l-1 1 M37 27 l1 1 M39 27 l-1 1 M39 27 l1 1 M41 27 l-1 1 M41 27 l1 1 M43 27 l-1 1 M43 27 l1 1 M53 27 l-1 1 M53 27 l1 1 M55 27 l-1 1 M55 27 l1 1 M57 27 l-1 1 M57 27 l1 1 M59 27 l-1 1 M59 27 l1 1 M4 28 l-1 1 M4 28 l1 1 M12 28 l-1 1 M12 28 l1 1 M20 28 l-1 1 M20 28 l1 1 M28 28 l-1 1 M28 28 l1 1 M36 28 l-1 1 M36 28 l1 1 M44 28 l-1 1 M44 28 l1 1 M52 28 l-1 1 M52 28 l1 1 M60 28 l-1 1 M60 28 l1 1 M3 29 l-1 1 M3 29 l1 1 M5 29 l-1 1 M5 29 l1 1 M11 29 l-1 1 M11 29 l1 1 M13 29 l-1 1 M13 29 l1 1 M19 29 l-1 1 M19 29 l1 1 M21 29 l-1 1 M21 29 l1 1 M27 29 l-1 1 M27 29 l1 1 M29 29 l-1 1 M29 29 l1 1 M35 29 l-1 1 M35 29 l1 1 M37 29 l-1 1 M37 29 l1 1 M43 29 l-1 1 M43 29 l1 1 M45 29 l-1 1 M45 29 l1 1 M51 29 l-1 1 M51 29 l1 1 M53 29 l-1 1 M53 29 l1 1 M59 29 l-1 1 M59 29 l1 1 M61 29 l-1 1 M61 29 l1 1 M2 30 l-1 1 M2 30 l1 1 M6 30 l-1 1 M6 30 l1 1 M10 30 l-1 1 M10 30 l1 1 M14 30 l-1 1 M14 30 l1 1 M18 30 l-1 1 M18 30 l1 1 M22 30 l-1 1 M22 30 l1 1 M26 30 l-1 1 M26 30 l1 1 M30 30 l-1 1 M30 30 l1 1 M34 30 l-1 1 M34 30 l1 1 M38 30 l-1 1 M38 30 l1 1 M42 30 l-1 1 M42 30 l1 1 M46 30 l-1 1 M46 30 l1 1 M50 30 l-1 1 M50 30 l1 1 M54 30 l-1 1 M54 30 l1 1 M58 30 l-1 1 M58 30 l1 1 M62 30 l-1 1 M62 30 l1 1 M1 31 l-1 1 M1 31 l1 1 M3 31 l-1 1 M3 31 l1 1 M5 31 l-1 1 M5 31 l1 1 M7 31 l-1 1 M7 31 l1 1 M9 31 l-1 1 M9 31 l1 1 M11 31 l-1 1 M11 31 l1 1 M13 31 l-1 1 M13 31 l1 1 M15 31 l-1 1 M15 31 l1 1 M17 31 l-1 1 M17 31 l1 1 M19 31 l-1 1 M19 31 l1 1 M21 31 l-1 1 M21 31 l1 1 M23 31 l-1 1 M23 31 l1 1 M25 31 l-1 1 M25 31 l1 1 M27 31 l-1 1 M27 31 l1 1 M29 31 l-1 1 M29 31 l1 1 M31 31 l-1 1 M31 31 l1 1 M33 31 l-1 1 M33 31 l1 1 M35 31 l-1 1 M35 31 l1 1 M37 31 l-1 1 M37 31 l1 1 M39 31 l-1 1 M39 31 l1 1 M41 31 l-1 1 M41 31 l1 1 M43 31 l-1 1 M43 31 l1 1 M45 31 l-1 1 M45 31 l1 1 M47 31 l-1 1 M47 31 l1 1 M49 31 l-1 1 M49 31 l1 1 M51 31 l-1 1 M51 31 l1 1 M53 31 l-1 1 M53 31 l1 1 M55 31 l-1 1 M55 31 l1 1 M57 31 l-1 1 M57 31 l1 1 M59 31 l-1 1 M59 31 l1 1 M61 31 l-1 1 M61 31 l1 1 M63 31 l-1 1 M63 31 l1 1" stroke="black" stroke-width="0.1" stroke-linecap="round" />
</svg>
